<?xml version="1.0" encoding="UTF-8"?>
<svg width="4000px" height="4000px" viewBox="0 0 4000 4000" version="1.1" xmlns="http://www.w3.org/2000/svg" xmlns:xlink="http://www.w3.org/1999/xlink">
    <!-- Generator: Sketch 60.1 (88133) - https://sketch.com -->
    <title>vectorstock_1351390</title>
    <desc>Created with Sketch.</desc>
    <defs>
        <polygon id="path-1" points="0.06 0.04 4000 0.04 4000 4000 0.06 4000"></polygon>
        <radialGradient cx="49.999%" cy="49.9995%" fx="49.999%" fy="49.9995%" r="69.3889439%" id="radialGradient-3">
            <stop stop-color="#DAEFF3" offset="0%"></stop>
            <stop stop-color="#6EC1D4" offset="100%"></stop>
        </radialGradient>
        <polygon id="path-4" points="0.06 0.46 4000 0.46 4000 3799 0.06 3799"></polygon>
    </defs>
    <g id="vectorstock_1351390" stroke="none" stroke-width="1" fill="none" fill-rule="evenodd">
        <g id="Group-3">
            <mask id="mask-2" fill="white">
                <use xlink:href="#path-1"></use>
            </mask>
            <g id="Clip-2"></g>
            <polygon id="Fill-1" fill="url(#radialGradient-3)" points="0.06 4000 4000.02 4000 4000.02 0.04 0.06 0.04"></polygon>
        </g>
        <g id="Group-360" transform="translate(1.000000, 201.000000)">
            <mask id="mask-5" fill="white">
                <use xlink:href="#path-4"></use>
            </mask>
            <g id="Clip-5"></g>
            <path d="M2456.27,458.023 L1675.67,458.023 C1675.67,458.023 1850.41,447.599 2065.97,447.599 C2281.53,447.599 2456.27,458.023 2456.27,458.023" id="Fill-4" fill="#A6D4D1" mask="url(#mask-5)"></path>
            <path d="M2456.27,458.023 L1675.67,458.023 C1675.67,458.023 1850.41,464.977 2065.97,464.977 C2281.51,464.977 2456.27,458.023 2456.27,458.023" id="Fill-6" fill="#DEF0EE" mask="url(#mask-5)"></path>
            <path d="M2499.08,409.898 C2570.49,398.448 2628.19,332.862 2627.92094,263.419 C2627.59,193.956 2568.92,146.93 2496.93,158.39 C2491.46,159.259 2486.12,160.548 2480.85,162.027 C2480.88,161.017 2481.14,160.021 2481.12,159.024 C2480.76,124.288 2451.23,100.772 2415.21,106.5 C2402.98,108.438 2391.75,113.683 2382.01,120.895 C2349.83,58.766 2279.2,23.063 2197.89,35.978 C2087.63,53.507 2000.63,153.868 2003.39,260.133 C2003.71,272.54 2005.32,284.435 2007.93,295.851 C1991.84,285.27 1971.22,280.606 1948.86,284.19 C1899.08,292.169 1859.9,337.882 1861.31,386.29 C1861.64,397.931 1864.34,408.663 1868.85,418.146 C1861.52,415.44 1853.33,414.356 1844.53,415.772 C1821.89,419.415 1803.21,436.988 1797.29,458.023 L2199.71,458.023 C2336.18,436.07 2467.33,414.996 2499.08,409.898" id="Fill-7" fill="#A6D4D1" mask="url(#mask-5)"></path>
            <path d="M2491.47,409.898 C2560.93,398.448 2607.92,332.862 2596.46,263.419 C2585.01,193.956 2519.44,146.93 2449.99,158.39 C2444.71,159.259 2439.62,160.548 2434.63,162.027 C2434.5,161.017 2434.61,160.021 2434.44,159.024 C2428.72,124.288 2395.92,100.772 2361.18,106.5 C2349.39,108.438 2339.08,113.683 2330.56,120.895 C2289.44,58.766 2214.5,23.063 2136.22,35.978 C2029.96,53.507 1958.01,153.868 1975.54,260.133 C1977.59,272.54 1980.86,284.435 1985.06,295.851 C1967.57,285.27 1946.43,280.606 1924.69,284.19 C1876.29,292.169 1843.53,337.882 1851.52,386.29 C1853.43,397.931 1857.6,408.663 1863.39,418.146 C1855.7,415.44 1847.38,414.356 1838.77,415.772 C1816.67,419.415 1800.37,436.988 1797.29,458.023 L2199.71,458.023 C2332.82,436.07 2460.58,414.996 2491.47,409.898" id="Fill-8" fill="#FFFFFE" mask="url(#mask-5)"></path>
            <path d="M3711.42,1147.26 L3213.86,1147.26 C3213.86,1147.26 3325.24,1138.57 3462.64,1138.57 C3600.03,1138.57 3711.42,1147.26 3711.42,1147.26" id="Fill-9" fill="#A6D4D1" mask="url(#mask-5)"></path>
            <path d="M3711.42,1147.26 L3213.86,1147.26 C3213.86,1147.26 3325.24,1153.06 3462.64,1153.06 C3600.02,1153.06 3711.42,1147.26 3711.42,1147.26" id="Fill-10" fill="#DEF0EE" mask="url(#mask-5)"></path>
            <path d="M3241.79,1119.97 C3203.53,1113.48 3183.73,1076.28 3197.66,1036.91 C3211.63,997.52 3254.47,970.84 3293.29,977.34 C3296.23,977.84 3299.01,978.57 3301.74,979.41 C3301.93,978.83 3301.97,978.27 3302.18,977.71 C3309.36,958 3330.96,944.66 3350.4,947.92 C3356.99,949.01 3362.36,951.99 3366.46,956.08 C3397.43,920.85 3445.11,900.6 3489.03,907.93 C3548.54,917.87 3577.56,974.78 3554.04,1035.04 C3551.31,1042.07 3547.94,1048.82 3544.09,1055.29 C3555.45,1049.3 3568.13,1046.66 3580.13,1048.69 C3606.82,1053.2 3619.62,1079.13 3608.76,1106.58 C3606.15,1113.19 3602.39,1119.27 3597.86,1124.65 C3602.59,1123.12 3607.45,1122.5 3612.17,1123.3 C3624.25,1125.37 3631.2,1135.33 3630.18,1147.26 L3401.97,1147.26 C3328.99,1134.81 3258.78,1122.87 3241.79,1119.97" id="Fill-11" fill="#A6D4D1" mask="url(#mask-5)"></path>
            <path d="M3236.51,1119.97 C3197.13,1113.48 3170.48,1076.28 3176.96,1036.91 C3183.47,997.52 3220.64,970.84 3260.03,977.34 C3263.03,977.84 3265.91,978.57 3268.74,979.41 C3268.82,978.83 3268.76,978.27 3268.85,977.71 C3272.1,958 3290.71,944.66 3310.4,947.92 C3317.08,949.01 3322.92,951.99 3327.76,956.08 C3351.07,920.85 3393.57,900.6 3437.97,907.93 C3498.23,917.87 3539.03,974.78 3529.08,1035.04 C3527.92,1042.07 3526.07,1048.82 3523.69,1055.29 C3533.6,1049.3 3545.6,1046.66 3557.92,1048.69 C3585.37,1053.2 3603.96,1079.13 3599.42,1106.58 C3598.34,1113.19 3595.97,1119.27 3592.69,1124.65 C3597.04,1123.12 3601.77,1122.5 3606.65,1123.3 C3619.19,1125.37 3628.43,1135.33 3630.18,1147.26 L3401.97,1147.26 C3326.47,1134.81 3254.03,1122.87 3236.51,1119.97" id="Fill-12" fill="#FFFFFE" mask="url(#mask-5)"></path>
            <path d="M2111.45,1081.84 L1600.1,1081.84 C1600.1,1081.84 1714.56,1072.91 1855.77,1072.91 C1996.97,1072.91 2111.45,1081.84 2111.45,1081.84" id="Fill-13" fill="#A6D4D1" mask="url(#mask-5)"></path>
            <path d="M2111.45,1081.84 L1600.1,1081.84 C1600.1,1081.84 1714.56,1087.79 1855.77,1087.79 C1996.96,1087.79 2111.45,1081.84 2111.45,1081.84" id="Fill-14" fill="#DEF0EE" mask="url(#mask-5)"></path>
            <path d="M1628.79,1053.79 C1589.47,1047.11 1569.13,1008.88 1583.44,968.41 C1597.8,927.93 1641.84,900.52 1681.72,907.2 C1684.75,907.72 1687.62,908.47 1690.41,909.33 C1690.61,908.74 1690.65,908.16 1690.86,907.58 C1698.24,887.33 1720.44,873.62 1740.42,876.97 C1747.2,878.1 1752.72,881.15 1756.93,885.35 C1788.75,849.14 1837.76,828.34 1882.89,835.86 C1944.07,846.08 1973.88,904.57 1949.71,966.5 C1946.9,973.73 1943.43,980.67 1939.49,987.32 C1951.15,981.15 1964.19,978.44 1976.52,980.52 C2003.95,985.17 2017.1,1011.81 2005.94,1040.03 C2003.27,1046.81 1999.39,1053.06 1994.74,1058.59 C1999.59,1057.02 2004.6,1056.38 2009.45,1057.22 C2021.87,1059.34 2029,1069.57 2027.96,1081.84 L1793.42,1081.84 C1718.42,1069.04 1646.27,1056.76 1628.79,1053.79" id="Fill-15" fill="#A6D4D1" mask="url(#mask-5)"></path>
            <path d="M1623.37,1053.79 C1582.9,1047.11 1555.5,1008.88 1562.18,968.41 C1568.86,927.93 1607.08,900.52 1647.55,907.2 C1650.63,907.72 1653.59,908.47 1656.5,909.33 C1656.58,908.74 1656.51,908.16 1656.61,907.58 C1659.95,887.33 1679.07,873.62 1699.31,876.97 C1706.17,878.1 1712.18,881.15 1717.16,885.35 C1741.12,849.14 1784.79,828.34 1830.42,835.86 C1892.35,846.08 1934.28,904.57 1924.06,966.5 C1922.87,973.73 1920.97,980.67 1918.52,987.32 C1928.7,981.15 1941.03,978.44 1953.7,980.52 C1981.91,985.17 2001,1011.81 1996.35,1040.03 C1995.23,1046.81 1992.8,1053.06 1989.43,1058.59 C1993.91,1057.02 1998.75,1056.38 2003.78,1057.22 C2016.65,1059.34 2026.16,1069.57 2027.96,1081.84 L1793.42,1081.84 C1715.83,1069.04 1641.38,1056.76 1623.37,1053.79" id="Fill-16" fill="#FFFFFE" mask="url(#mask-5)"></path>
            <path d="M1449.99,509.547 L569.067,509.547 C569.067,509.547 766.265,499.122 1009.54,499.122 C1252.79,499.122 1449.99,509.547 1449.99,509.547" id="Fill-17" fill="#A6D4D1" mask="url(#mask-5)"></path>
            <path d="M1449.99,509.547 L569.067,509.547 C569.067,509.547 766.265,516.5 1009.54,516.5 C1252.78,516.5 1449.99,509.547 1449.99,509.547" id="Fill-18" fill="#DEF0EE" mask="url(#mask-5)"></path>
            <path d="M1307.7,436.593 C1333.57,367.013 1300.07,301.91 1232.83,291.153 C1227.72,290.343 1222.57,289.977 1217.4,289.82 C1217.8,288.824 1218.41,287.911 1218.79,286.91 C1231.72,252.12 1214.97,219.552 1181.34,214.176 C1169.94,212.345 1158.13,214.112 1146.87,218.312 C1142.76,146.466 1095.13,89.195 1019.35,77.081 C916.499,60.621 801.006,133.575 761.421,240.016 C756.802,252.442 753.521,264.767 751.318,276.91 C741.372,261.422 725.122,250.401 704.092,247.032 C657.231,239.532 604.639,272.755 586.606,321.246 C582.271,332.906 580.381,344.396 580.576,355.216 C575.2,350.25 568.413,346.632 560.083,345.294 C533.599,341.056 503.872,359.864 493.677,387.267 C483.481,414.684 496.685,440.313 523.169,444.542 C539.966,447.228 756.489,481.866 929.575,509.547 L1253.47,509.547 C1277.36,490.792 1296.89,465.641 1307.7,436.593" id="Fill-19" fill="#A6D4D1" mask="url(#mask-5)"></path>
            <path d="M1291.84,436.593 C1302.59,367.013 1254.94,301.91 1185.37,291.153 C1180.08,290.343 1174.85,289.977 1169.65,289.82 C1169.83,288.824 1170.25,287.911 1170.41,286.91 C1175.77,252.12 1151.94,219.552 1117.15,214.176 C1105.36,212.345 1093.91,214.112 1083.56,218.312 C1063.86,146.466 1003.76,89.195 925.366,77.081 C818.921,60.621 719.302,133.575 702.842,240.016 C700.913,252.442 700.317,264.767 700.757,276.91 C687.437,261.422 668.794,250.401 647.036,247.032 C598.545,239.532 553.179,272.755 545.679,321.246 C543.872,332.906 544.497,344.396 547.036,355.216 C540.576,350.25 532.998,346.632 524.39,345.294 C496.982,341.056 471.333,359.864 467.1,387.267 C462.866,414.684 481.631,440.313 509.038,444.542 C526.421,447.228 750.459,481.866 929.575,509.547 L1253.47,509.547 C1273.29,490.792 1287.35,465.641 1291.84,436.593" id="Fill-20" fill="#FFFFFE" mask="url(#mask-5)"></path>
            <path d="M827.524,1117.96 L335.854,1117.96 C335.854,1117.96 445.918,1108.8 581.694,1108.8 C717.456,1108.8 827.524,1117.96 827.524,1117.96" id="Fill-21" fill="#A6D4D1" mask="url(#mask-5)"></path>
            <path d="M827.524,1117.96 L335.854,1117.96 C335.854,1117.96 445.918,1124.08 581.694,1124.08 C717.456,1124.08 827.524,1117.96 827.524,1117.96" id="Fill-22" fill="#DEF0EE" mask="url(#mask-5)"></path>
            <path d="M426.489,1074.89 C425.151,1033.83 457.983,995.41 499.819,989.05 C502.998,988.57 506.118,988.36 509.199,988.27 C509.165,987.68 508.979,987.14 508.96,986.55 C508.301,966.02 524.722,946.8 545.64,943.62 C552.739,942.54 559.365,943.58 565.166,946.07 C581.982,903.65 621.587,869.84 668.735,862.7 C732.749,852.98 786.294,896.05 788.315,958.87 C788.56,966.2 788.022,973.49 786.89,980.65 C795.869,971.5 807.661,965 820.752,963.01 C849.912,958.58 874.292,978.19 875.22,1006.81 C875.444,1013.7 874.258,1020.48 871.968,1026.87 C876.147,1023.94 880.869,1021.8 886.05,1021.02 C902.539,1018.51 916.313,1029.61 916.841,1045.78 C917.363,1061.97 904.438,1077.1 887.954,1079.59 C877.495,1081.17 742.764,1101.62 635.044,1117.96 L443.872,1117.96 C433.521,1106.89 427.036,1092.05 426.489,1074.89" id="Fill-23" fill="#A6D4D1" mask="url(#mask-5)"></path>
            <path d="M421.216,1074.89 C414.868,1033.83 442.993,995.41 484.067,989.05 C487.183,988.57 490.269,988.36 493.345,988.27 C493.228,987.68 492.988,987.14 492.896,986.55 C489.731,966.02 503.794,946.8 524.331,943.62 C531.294,942.54 538.047,943.58 544.15,946.07 C555.786,903.65 591.25,869.84 637.524,862.7 C700.356,852.98 759.155,896.05 768.872,958.87 C770.005,966.2 770.356,973.49 770.103,980.65 C777.964,971.5 788.97,965 801.816,963.01 C830.43,958.58 857.212,978.19 861.636,1006.81 C862.7,1013.7 862.339,1020.48 860.825,1026.87 C864.648,1023.94 869.121,1021.8 874.199,1021.02 C890.376,1018.51 905.513,1029.61 908.018,1045.78 C910.513,1061.97 899.438,1077.1 883.262,1079.59 C872.998,1081.17 740.767,1101.62 635.044,1117.96 L443.872,1117.96 C432.173,1106.89 423.867,1092.05 421.216,1074.89" id="Fill-24" fill="#FFFFFE" mask="url(#mask-5)"></path>
            <path d="M3643.83,590.802 L2841.63,590.802 C2841.63,590.802 3021.2,580.382 3242.72,580.382 C3464.25,580.382 3643.83,590.802 3643.83,590.802" id="Fill-25" fill="#A6D4D1" mask="url(#mask-5)"></path>
            <path d="M3643.83,590.802 L2841.63,590.802 C2841.63,590.802 3021.2,597.755 3242.72,597.755 C3464.25,597.755 3643.83,590.802 3643.83,590.802" id="Fill-26" fill="#DEF0EE" mask="url(#mask-5)"></path>
            <path d="M3623.74,340.841 C3648.48,153.155 3515.91,0.46 3328.21,0.46 C3140.54,0.46 2967.72,153.155 2942.98,340.841 C2929.97,439.571 2960.54,528.57 3019.7,590.802 L3481.14,590.802 C3556.72,528.57 3610.73,439.571 3623.74,340.841" id="Fill-27" fill="#90CBC9" mask="url(#mask-5)"></path>
            <path d="M3590.79,340.841 C3590.79,153.155 3438.12,0.46 3250.42,0.46 C3062.73,0.46 2910.04,153.155 2910.04,340.841 C2910.04,439.571 2952.33,528.57 3019.7,590.802 L3481.14,590.802 C3548.52,528.57 3590.79,439.571 3590.79,340.841" id="Fill-28" fill="#FFFFFE" mask="url(#mask-5)"></path>
            <path d="M3541.1,340.841 C3541.1,180.294 3410.97,50.152 3250.42,50.152 C3089.88,50.152 2959.74,180.294 2959.74,340.841 C2959.74,447.179 3016.87,540.128 3102.07,590.802 L3398.78,590.802 C3483.98,540.128 3541.1,447.179 3541.1,340.841" id="Fill-29" fill="#F8CC24" mask="url(#mask-5)"></path>
            <path d="M2991.98,207.843 C2971.42,247.706 2959.74,292.892 2959.74,340.841 C2959.74,345.548 2959.87,350.23 2960.09,354.898 C3116.42,247.062 3186.52,288.565 3250.42,340.841 C3221.22,263.624 3181.28,192.618 2991.98,207.843" id="Fill-30" fill="#FCEB24" mask="url(#mask-5)"></path>
            <path d="M3099.95,325.543 C3061.76,339.117 3018.62,371.109 2970.86,420.411 C2984.99,470.157 3012,514.449 3048.12,549.469 C3064.83,482.921 3086.18,433.668 3112.46,402.823 C3151.17,355.011 3200.79,347.94 3250.42,340.841 C3203.91,322.169 3157.38,303.487 3099.95,325.543" id="Fill-31" fill="#FCEB24" mask="url(#mask-5)"></path>
            <path d="M3459.05,543.146 C3392.5,526.427 3343.25,505.074 3312.41,478.8 C3264.6,440.089 3257.51,390.46 3250.42,340.841 C3231.76,387.359 3213.08,433.878 3235.13,491.305 C3245.83,521.441 3268.06,554.664 3301.16,590.802 L3398.63,590.802 C3420.85,577.618 3441.17,561.583 3459.05,543.146" id="Fill-32" fill="#FCEB24" mask="url(#mask-5)"></path>
            <path d="M3250.42,340.841 C3174.38,369.586 3104.44,408.878 3116.85,590.802 L3238.79,590.802 C3164.27,462.218 3202.89,398.946 3250.42,340.841" id="Fill-33" fill="#FCEB24" mask="url(#mask-5)"></path>
            <path d="M3265.71,190.372 C3252.14,152.179 3220.15,109.044 3170.85,61.271 C3121.1,75.406 3076.81,102.423 3041.8,138.531 C3108.35,155.245 3157.59,176.593 3188.44,202.882 C3236.25,241.593 3243.32,291.212 3250.42,340.841 C3269.09,294.317 3287.77,247.804 3265.71,190.372" id="Fill-34" fill="#FCEB24" mask="url(#mask-5)"></path>
            <path d="M3540.75,326.788 C3384.41,434.625 3314.33,393.106 3250.42,340.841 C3279.62,418.048 3319.57,489.054 3508.87,473.839 C3529.42,433.966 3541.1,388.78 3541.1,340.841 C3541.1,336.124 3540.98,331.446 3540.75,326.788" id="Fill-35" fill="#FCEB24" mask="url(#mask-5)"></path>
            <path d="M3400.89,356.134 C3439.09,342.56 3482.22,310.563 3529.99,261.266 C3515.86,211.515 3488.84,167.228 3452.73,132.203 C3436.02,198.751 3414.66,248.009 3388.37,278.849 C3349.66,326.671 3300.04,333.746 3250.42,340.841 C3296.94,359.503 3343.45,378.185 3400.89,356.134" id="Fill-36" fill="#FCEB24" mask="url(#mask-5)"></path>
            <path d="M3367.63,245.255 C3385.04,208.648 3392.92,155.528 3391.84,86.891 C3346.67,61.7 3296.25,49.488 3245.95,50.265 C3281.18,109.137 3300.91,159.063 3304.14,199.464 C3310.58,260.646 3280.5,300.738 3250.42,340.841 C3296.51,321.144 3342.62,301.466 3367.63,245.255" id="Fill-37" fill="#FCEB24" mask="url(#mask-5)"></path>
            <path d="M240.82,2324.69 L73.062,2298.19 L109.556,2067.15 C90.767,2041.8 78.901,2012.31 74.897,1980.6 C66.343,1912.98 96.25,1846.23 150.64,1807.02 L171.167,1677.06 L422.568,1494.24 L471.436,1561.44 L589.961,1580.16 L571.245,1698.67 L580.005,1710.74 C599.736,1633.08 665.249,1571.44 749.429,1560.74 C783.389,1556.46 818.032,1560.93 849.624,1573.69 C899.712,1593.91 938.833,1633.14 959.375,1681.52 L1127.84,1518.95 L1181.04,1574.08 L1178.36,1541.02 L1215.95,1496.77 L1204.98,1361.5 L1340.25,1350.54 L1379.68,1304.16 L1616.52,1505.48 L1634.69,1729.47 L1660.67,1730.18 C1670.55,1647.77 1735.43,1579.27 1821.43,1568.38 C1838.36,1566.24 1855.48,1566.46 1872.25,1569 L1875.5,1505.1 L1918.59,1466.19 L1925.5,1330.64 L2061.05,1337.55 L2106.23,1296.76 L2292.22,1502.78 L2328.22,1461.4 L2390.93,1515.95 L2510.62,1507.62 L2518.96,1627.31 L2562.76,1665.42 L2566.96,1725.55 L2579.13,1726.02 C2578.9,1724.43 2578.66,1722.85 2578.47,1721.27 C2565.65,1619.9 2637.71,1526.99 2739.06,1514.16 C2770.4,1510.21 2802.37,1514.31 2831.53,1526.09 C2833.48,1526.87 2835.41,1527.7 2837.31,1528.55 L2842.07,1501.23 L2889.54,1467.81 L2912.8,1334.11 L3046.53,1357.36 L3096.3,1322.34 L3261.86,1557.63 C3290.52,1514.7 3335.59,1482.74 3390.12,1472.06 C3428.39,1464.56 3467.66,1468.3 3503.69,1482.84 C3555.53,1503.77 3595.5,1544.58 3615.46,1595.43 L3789.95,1468.52 L3838.84,1535.74 L3957.35,1554.45 L3938.64,1672.97 L3972.79,1719.94 L3829.71,2336.3 L3633.7,2303.01 L3632.82,2316.49 L3151.9,2285.3 L3137.35,2368.99 L2863.67,2321.41 L2392.92,2303.27 L2274.54,2311.51 L2273.34,2335.06 L1834.28,2312.68 L1834.39,2310.5 L1681.48,2306.32 L1681.89,2311.47 L1333.11,2339.76 L1332.7,2362.72 L893.154,2354.95 L893.994,2307.4 L512.598,2333.26 L507.31,2366.77 L365.186,2344.34 L245.444,2374.24 L240.82,2324.69" id="Fill-38" fill="#A6D4D1" mask="url(#mask-5)"></path>
            <path d="M195.825,2319.92 L28.071,2293.44 L64.561,2062.38 C45.771,2037.05 33.906,2007.56 29.902,1975.85 C21.353,1908.23 51.255,1841.47 105.64,1802.26 L126.167,1672.31 L377.573,1489.47 L426.44,1556.68 L544.976,1575.4 L526.25,1693.92 L535.02,1705.97 C554.741,1628.3 620.254,1566.66 704.434,1556.01 C738.394,1551.71 773.042,1556.17 804.629,1568.92 C854.722,1589.13 893.838,1628.38 914.38,1676.77 L1082.84,1514.18 L1136.05,1569.34 L1133.37,1536.25 L1170.96,1492.02 L1159.99,1356.73 L1295.26,1345.77 L1334.69,1299.38 L1571.53,1500.72 L1589.7,1724.72 L1615.67,1725.42 C1625.56,1643.02 1690.44,1574.51 1776.43,1563.62 C1793.36,1561.5 1810.49,1561.71 1827.25,1564.23 L1830.51,1500.34 L1873.6,1461.44 L1880.5,1325.89 L2016.06,1332.79 L2061.23,1292.01 L2247.23,1498.02 L2283.22,1456.64 L2345.93,1511.19 L2465.62,1502.85 L2473.96,1622.55 L2517.78,1660.66 L2521.97,1720.8 L2534.14,1721.26 C2533.9,1719.68 2533.68,1718.09 2533.48,1716.5 C2520.65,1615.14 2592.71,1522.23 2694.07,1509.39 C2725.41,1505.45 2757.37,1509.57 2786.54,1521.34 C2788.49,1522.13 2790.41,1522.92 2792.32,1523.79 L2797.08,1496.46 L2844.55,1463.06 L2867.81,1329.35 L3001.54,1352.61 L3051.3,1317.59 L3216.87,1552.89 C3245.53,1509.95 3290.6,1477.98 3345.13,1467.3 C3383.39,1459.81 3422.67,1463.55 3458.7,1478.09 C3510.53,1499.02 3550.5,1539.83 3570.46,1590.67 L3744.97,1463.77 L3793.84,1530.99 L3912.36,1549.7 L3893.64,1668.22 L3927.8,1715.2 L3829.71,2336.3 L3588.7,2298.26 L3587.83,2311.73 L3106.9,2280.55 L3092.35,2364.23 L2818.68,2316.64 L2347.92,2298.51 L2229.54,2306.74 L2228.34,2330.33 L1789.28,2307.91 L1789.4,2305.76 L1636.48,2301.58 L1636.9,2306.7 L1288.12,2334.99 L1287.71,2357.97 L848.159,2350.19 L848.999,2302.64 L467.607,2328.5 L462.31,2362.02 L320.195,2339.58 L200.449,2369.49 L195.825,2319.92" id="Fill-39" fill="#FFFFFE" mask="url(#mask-5)"></path>
            <path d="M1665.16,1764.5 C1655.77,1690.19 1708.39,1622.34 1782.68,1612.95 C1856.96,1603.55 1924.81,1656.15 1934.2,1730.46 C1943.59,1804.75 1890.99,1872.59 1816.69,1881.98 C1742.41,1891.39 1674.55,1838.76 1665.16,1764.5" id="Fill-40" fill="#BEC935" mask="url(#mask-5)"></path>
            <polyline id="Fill-41" fill="#664628" mask="url(#mask-5)" points="1904.75 1754.32 1817.56 1840.94 1789.59 1663.48 1800.78 1783.27 1722.03 1716.51 1801.9 1795.41 1830.51 2102.1 1857.65 2095.32 1819.6 1853.97 1904.75 1754.32"></polyline>
            <path d="M2582.8,1710.26 C2573.41,1635.97 2626.03,1568.14 2700.32,1558.72 C2774.6,1549.31 2842.45,1601.94 2851.85,1676.23 C2861.23,1750.51 2808.62,1818.37 2734.33,1827.75 C2660.05,1837.15 2592.18,1784.53 2582.8,1710.26" id="Fill-42" fill="#BEC935" mask="url(#mask-5)"></path>
            <polyline id="Fill-43" fill="#664628" mask="url(#mask-5)" points="2822.39 1700.08 2735.21 1786.71 2707.24 1609.26 2718.42 1729.03 2639.66 1662.28 2719.54 1741.18 2748.14 2047.88 2775.28 2041.09 2737.25 1799.73 2822.39 1700.08"></polyline>
            <path d="M579.819,1774.08 C569.355,1691.34 627.954,1615.8 710.684,1605.32 C793.403,1594.84 868.96,1653.44 879.419,1736.19 C889.878,1818.92 831.299,1894.47 748.569,1904.91 C665.84,1915.4 590.264,1856.78 579.819,1774.08" id="Fill-44" fill="#BEC935" mask="url(#mask-5)"></path>
            <polyline id="Fill-45" fill="#664628" mask="url(#mask-5)" points="846.626 1762.75 749.531 1859.22 718.394 1661.6 730.835 1795 643.14 1720.66 732.085 1808.52 763.945 2150.05 794.175 2142.5 751.812 1873.72 846.626 1762.75"></polyline>
            <path d="M3235.51,1693.31 C3219.48,1611.45 3272.86,1532.14 3354.7,1516.08 C3436.51,1500.08 3515.85,1553.43 3531.88,1635.27 C3547.88,1717.1 3494.55,1796.44 3412.71,1812.45 C3330.87,1828.47 3251.51,1775.11 3235.51,1693.31" id="Fill-46" fill="#BEC935" mask="url(#mask-5)"></path>
            <polyline id="Fill-47" fill="#664628" mask="url(#mask-5)" points="3500.95 1663.99 3410.59 1766.77 3366.18 1571.71 3387.61 1703.96 3295.07 1635.7 3389.76 1717.36 3444.6 2055.97 3474.25 2046.39 3413.84 1781.08 3500.95 1663.99"></polyline>
            <polyline id="Fill-48" fill="#E9853D" mask="url(#mask-5)" points="1976.21 1512.43 1920.92 1509.6 1927.63 1378.07 1982.92 1380.89 1976.21 1512.43"></polyline>
            <polyline id="Fill-49" fill="#E9853D" mask="url(#mask-5)" points="1876.44 1575.91 2054.98 1414.73 2216.16 1593.28 2181.22 2278.13 1841.49 2260.81 1876.44 1575.91"></polyline>
            <polyline id="Fill-50" fill="#2D2E2C" mask="url(#mask-5)" points="1876.44 1575.91 2054.98 1414.73 2216.16 1593.28 2218.84 1540.77 2057.65 1362.23 1879.12 1523.44 1876.44 1575.91"></polyline>
            <polyline id="Fill-51" fill="#FFFFFE" mask="url(#mask-5)" points="2155.02 1743.38 2059.58 1738.51 2066.88 1595.31 2162.32 1600.2 2155.02 1743.38"></polyline>
            <polyline id="Fill-52" fill="#C3E5EB" mask="url(#mask-5)" points="2149.38 1666.52 2152.29 1609.25 2118.9 1607.53 2115.99 1664.82 2149.38 1666.52"></polyline>
            <polyline id="Fill-53" fill="#C3E5EB" mask="url(#mask-5)" points="2106.44 1664.33 2109.37 1607.05 2075.95 1605.35 2073.02 1662.62 2106.44 1664.33"></polyline>
            <polyline id="Fill-54" fill="#C3E5EB" mask="url(#mask-5)" points="2072.53 1672.15 2069.62 1729.45 2103.03 1731.15 2105.96 1673.87 2072.53 1672.15"></polyline>
            <polyline id="Fill-55" fill="#C3E5EB" mask="url(#mask-5)" points="2115.5 1674.35 2112.57 1731.64 2145.97 1733.35 2148.9 1676.05 2115.5 1674.35"></polyline>
            <polyline id="Fill-56" fill="#FFFFFE" mask="url(#mask-5)" points="2144.48 1949.79 2049.04 1944.93 2056.36 1801.73 2151.79 1806.62 2144.48 1949.79"></polyline>
            <polyline id="Fill-57" fill="#C3E5EB" mask="url(#mask-5)" points="2138.85 1872.93 2141.77 1815.67 2108.37 1813.97 2105.44 1871.23 2138.85 1872.93"></polyline>
            <polyline id="Fill-58" fill="#C3E5EB" mask="url(#mask-5)" points="2095.91 1870.74 2098.83 1813.48 2065.41 1811.77 2062.49 1869.03 2095.91 1870.74"></polyline>
            <polyline id="Fill-59" fill="#C3E5EB" mask="url(#mask-5)" points="2062 1878.6 2059.07 1935.88 2092.49 1937.58 2095.42 1880.3 2062 1878.6"></polyline>
            <polyline id="Fill-60" fill="#C3E5EB" mask="url(#mask-5)" points="2104.95 1880.79 2102.04 1938.06 2135.44 1939.77 2138.35 1882.51 2104.95 1880.79"></polyline>
            <polyline id="Fill-61" fill="#FFFFFE" mask="url(#mask-5)" points="2133.96 2156.22 2038.52 2151.35 2045.81 2008.17 2141.26 2013.05 2133.96 2156.22"></polyline>
            <polyline id="Fill-62" fill="#C3E5EB" mask="url(#mask-5)" points="2128.31 2079.38 2131.24 2022.11 2097.84 2020.4 2094.91 2077.68 2128.31 2079.38"></polyline>
            <polyline id="Fill-63" fill="#C3E5EB" mask="url(#mask-5)" points="2085.37 2077.2 2088.3 2019.9 2054.87 2018.21 2051.96 2075.49 2085.37 2077.2"></polyline>
            <polyline id="Fill-64" fill="#C3E5EB" mask="url(#mask-5)" points="2051.46 2085.03 2048.54 2142.29 2081.96 2144.01 2084.89 2086.72 2051.46 2085.03"></polyline>
            <polyline id="Fill-65" fill="#C3E5EB" mask="url(#mask-5)" points="2094.42 2087.21 2091.5 2144.5 2124.9 2146.21 2127.83 2088.92 2094.42 2087.21"></polyline>
            <polyline id="Fill-66" fill="#FFFFFE" mask="url(#mask-5)" points="2017.42 1736.33 1921.96 1731.47 1929.26 1588.3 2024.73 1593.17 2017.42 1736.33"></polyline>
            <polyline id="Fill-67" fill="#C3E5EB" mask="url(#mask-5)" points="2011.78 1659.51 2014.7 1602.21 1981.27 1600.5 1978.35 1657.8 2011.78 1659.51"></polyline>
            <polyline id="Fill-68" fill="#C3E5EB" mask="url(#mask-5)" points="1968.81 1657.32 1971.73 1600.03 1938.32 1598.3 1935.39 1655.6 1968.81 1657.32"></polyline>
            <polyline id="Fill-69" fill="#C3E5EB" mask="url(#mask-5)" points="1934.9 1665.14 1931.98 1722.42 1965.41 1724.13 1968.33 1666.84 1934.9 1665.14"></polyline>
            <polyline id="Fill-70" fill="#C3E5EB" mask="url(#mask-5)" points="1977.87 1667.32 1974.95 1724.63 2008.36 1726.32 2011.3 1669.02 1977.87 1667.32"></polyline>
            <polyline id="Fill-71" fill="#FFFFFE" mask="url(#mask-5)" points="2006.89 1942.76 1911.42 1937.9 1918.73 1794.72 2014.19 1799.59 2006.89 1942.76"></polyline>
            <polyline id="Fill-72" fill="#C3E5EB" mask="url(#mask-5)" points="2001.25 1865.91 2004.17 1808.66 1970.75 1806.95 1967.83 1864.21 2001.25 1865.91"></polyline>
            <polyline id="Fill-73" fill="#C3E5EB" mask="url(#mask-5)" points="1958.28 1863.72 1961.2 1806.46 1927.78 1804.76 1924.86 1862.01 1958.28 1863.72"></polyline>
            <polyline id="Fill-74" fill="#C3E5EB" mask="url(#mask-5)" points="1924.37 1871.59 1921.45 1928.85 1954.87 1930.56 1957.79 1873.29 1924.37 1871.59"></polyline>
            <polyline id="Fill-75" fill="#C3E5EB" mask="url(#mask-5)" points="1967.34 1873.77 1964.41 1931.04 1997.83 1932.74 2000.76 1875.47 1967.34 1873.77"></polyline>
            <polyline id="Fill-76" fill="#FFFFFE" mask="url(#mask-5)" points="1996.35 2149.21 1900.89 2144.34 1908.2 2001.16 2003.66 2006.03 1996.35 2149.21"></polyline>
            <polyline id="Fill-77" fill="#C3E5EB" mask="url(#mask-5)" points="1990.71 2072.37 1993.64 2015.08 1960.21 2013.38 1957.29 2070.65 1990.71 2072.37"></polyline>
            <polyline id="Fill-78" fill="#C3E5EB" mask="url(#mask-5)" points="1947.74 2070.16 1950.66 2012.9 1917.25 2011.19 1914.32 2068.46 1947.74 2070.16"></polyline>
            <polyline id="Fill-79" fill="#C3E5EB" mask="url(#mask-5)" points="1913.83 2077.99 1910.91 2135.28 1944.34 2137 1947.26 2079.7 1913.83 2077.99"></polyline>
            <polyline id="Fill-80" fill="#C3E5EB" mask="url(#mask-5)" points="1956.81 2080.2 1953.88 2137.47 1987.3 2139.17 1990.22 2081.9 1956.81 2080.2"></polyline>
            <polyline id="Fill-81" fill="#E9853D" mask="url(#mask-5)" points="1279.39 1529.08 1224.21 1533.56 1213.56 1402.26 1268.75 1397.79 1279.39 1529.08"></polyline>
            <polyline id="Fill-82" fill="#E9853D" mask="url(#mask-5)" points="1188.84 1605.15 1344.62 1421.86 1527.89 1577.66 1583.32 2261.17 1244.26 2288.68 1188.84 1605.15"></polyline>
            <polyline id="Fill-83" fill="#2D2E2C" mask="url(#mask-5)" points="1188.84 1605.15 1344.62 1421.86 1527.89 1577.66 1523.64 1525.26 1340.38 1369.48 1184.59 1552.75 1188.84 1605.15"></polyline>
            <polyline id="Fill-84" fill="#FFFFFE" mask="url(#mask-5)" points="1487.03 1734.48 1391.77 1742.22 1380.19 1599.31 1475.43 1591.58 1487.03 1734.48"></polyline>
            <polyline id="Fill-85" fill="#C3E5EB" mask="url(#mask-5)" points="1471.32 1659.06 1466.68 1601.88 1433.35 1604.59 1437.99 1661.76 1471.32 1659.06"></polyline>
            <polyline id="Fill-86" fill="#C3E5EB" mask="url(#mask-5)" points="1428.47 1662.54 1423.83 1605.37 1390.47 1608.06 1395.11 1665.24 1428.47 1662.54"></polyline>
            <polyline id="Fill-87" fill="#C3E5EB" mask="url(#mask-5)" points="1395.88 1674.76 1400.52 1731.93 1433.87 1729.23 1429.24 1672.05 1395.88 1674.76"></polyline>
            <polyline id="Fill-88" fill="#C3E5EB" mask="url(#mask-5)" points="1438.76 1671.28 1443.4 1728.45 1476.73 1725.76 1472.09 1668.58 1438.76 1671.28"></polyline>
            <polyline id="Fill-89" fill="#FFFFFE" mask="url(#mask-5)" points="1503.73 1940.51 1408.47 1948.25 1396.88 1805.34 1492.14 1797.61 1503.73 1940.51"></polyline>
            <polyline id="Fill-90" fill="#C3E5EB" mask="url(#mask-5)" points="1488.03 1865.06 1483.39 1807.91 1450.06 1810.63 1454.69 1867.76 1488.03 1865.06"></polyline>
            <polyline id="Fill-91" fill="#C3E5EB" mask="url(#mask-5)" points="1445.17 1868.54 1440.54 1811.39 1407.19 1814.09 1411.82 1871.24 1445.17 1868.54"></polyline>
            <polyline id="Fill-92" fill="#C3E5EB" mask="url(#mask-5)" points="1412.59 1880.79 1417.23 1937.95 1450.59 1935.25 1445.94 1878.07 1412.59 1880.79"></polyline>
            <polyline id="Fill-93" fill="#C3E5EB" mask="url(#mask-5)" points="1455.47 1877.31 1460.1 1934.48 1493.44 1931.76 1488.8 1874.62 1455.47 1877.31"></polyline>
            <polyline id="Fill-94" fill="#FFFFFE" mask="url(#mask-5)" points="1520.44 2146.55 1425.19 2154.26 1413.6 2011.37 1508.85 2003.65 1520.44 2146.55"></polyline>
            <polyline id="Fill-95" fill="#C3E5EB" mask="url(#mask-5)" points="1504.74 2071.1 1500.1 2013.93 1466.76 2016.64 1471.41 2073.81 1504.74 2071.1"></polyline>
            <polyline id="Fill-96" fill="#C3E5EB" mask="url(#mask-5)" points="1461.88 2074.59 1457.25 2017.4 1423.89 2020.1 1428.53 2077.29 1461.88 2074.59"></polyline>
            <polyline id="Fill-97" fill="#C3E5EB" mask="url(#mask-5)" points="1429.3 2086.78 1433.94 2143.97 1467.29 2141.26 1462.65 2084.09 1429.3 2086.78"></polyline>
            <polyline id="Fill-98" fill="#C3E5EB" mask="url(#mask-5)" points="1472.18 2083.32 1476.81 2140.49 1510.15 2137.8 1505.51 2080.63 1472.18 2083.32"></polyline>
            <polyline id="Fill-99" fill="#FFFFFE" mask="url(#mask-5)" points="1349.69 1745.62 1254.41 1753.36 1242.82 1610.46 1338.11 1602.74 1349.69 1745.62"></polyline>
            <polyline id="Fill-100" fill="#C3E5EB" mask="url(#mask-5)" points="1333.99 1670.2 1329.35 1613.02 1296.01 1615.7 1300.65 1672.91 1333.99 1670.2"></polyline>
            <polyline id="Fill-101" fill="#C3E5EB" mask="url(#mask-5)" points="1291.11 1673.67 1286.48 1616.49 1253.12 1619.22 1257.75 1676.38 1291.11 1673.67"></polyline>
            <polyline id="Fill-102" fill="#C3E5EB" mask="url(#mask-5)" points="1258.53 1685.9 1263.16 1743.08 1296.52 1740.38 1291.88 1683.18 1258.53 1685.9"></polyline>
            <polyline id="Fill-103" fill="#C3E5EB" mask="url(#mask-5)" points="1301.42 1682.4 1306.05 1739.59 1339.4 1736.89 1334.76 1679.72 1301.42 1682.4"></polyline>
            <polyline id="Fill-104" fill="#FFFFFE" mask="url(#mask-5)" points="1366.4 1951.64 1271.13 1959.36 1259.53 1816.49 1354.82 1808.75 1366.4 1951.64"></polyline>
            <polyline id="Fill-105" fill="#C3E5EB" mask="url(#mask-5)" points="1350.7 1876.2 1346.06 1819.04 1312.71 1821.76 1317.34 1878.9 1350.7 1876.2"></polyline>
            <polyline id="Fill-106" fill="#C3E5EB" mask="url(#mask-5)" points="1307.82 1879.67 1303.18 1822.53 1269.83 1825.24 1274.46 1882.39 1307.82 1879.67"></polyline>
            <polyline id="Fill-107" fill="#C3E5EB" mask="url(#mask-5)" points="1275.24 1891.93 1279.88 1949.08 1313.23 1946.38 1308.6 1889.21 1275.24 1891.93"></polyline>
            <polyline id="Fill-108" fill="#C3E5EB" mask="url(#mask-5)" points="1318.12 1888.45 1322.76 1945.61 1356.11 1942.91 1351.47 1885.76 1318.12 1888.45"></polyline>
            <polyline id="Fill-109" fill="#FFFFFE" mask="url(#mask-5)" points="1383.11 2157.68 1287.83 2165.41 1276.24 2022.51 1371.52 2014.77 1383.11 2157.68"></polyline>
            <polyline id="Fill-110" fill="#C3E5EB" mask="url(#mask-5)" points="1367.4 2082.24 1362.77 2025.07 1329.42 2027.78 1334.06 2084.95 1367.4 2082.24"></polyline>
            <polyline id="Fill-111" fill="#C3E5EB" mask="url(#mask-5)" points="1324.53 2085.72 1319.89 2028.54 1286.54 2031.26 1291.18 2088.41 1324.53 2085.72"></polyline>
            <polyline id="Fill-112" fill="#C3E5EB" mask="url(#mask-5)" points="1291.94 2097.94 1296.58 2155.09 1329.94 2152.4 1325.3 2095.22 1291.94 2097.94"></polyline>
            <polyline id="Fill-113" fill="#C3E5EB" mask="url(#mask-5)" points="1334.83 2094.47 1339.46 2151.65 1372.82 2148.92 1368.18 2091.76 1334.83 2094.47"></polyline>
            <polyline id="Fill-114" fill="#E9853D" mask="url(#mask-5)" points="3787.31 1697.73 3837.39 1705.64 3855.5 1591.06 3805.41 1583.14 3787.31 1697.73"></polyline>
            <polyline id="Fill-115" fill="#E9853D" mask="url(#mask-5)" points="3867.28 1779.72 3725.79 1585.15 3531.26 1726.63 3452.32 2226.38 3788.35 2279.45 3867.28 1779.72"></polyline>
            <polyline id="Fill-116" fill="#2D2E2C" mask="url(#mask-5)" points="3867.28 1779.72 3725.79 1585.15 3531.26 1726.63 3539.46 1674.72 3733.99 1533.22 3875.48 1727.78 3867.28 1779.72"></polyline>
            <polyline id="Fill-117" fill="#FFFFFE" mask="url(#mask-5)" points="3560.14 1886.1 3654.55 1901.01 3676.92 1759.41 3582.51 1744.51 3560.14 1886.1"></polyline>
            <polyline id="Fill-118" fill="#C3E5EB" mask="url(#mask-5)" points="3581.49 1812.08 3590.45 1755.41 3623.49 1760.63 3614.54 1817.3 3581.49 1812.08"></polyline>
            <polyline id="Fill-119" fill="#C3E5EB" mask="url(#mask-5)" points="3623.98 1818.79 3632.94 1762.14 3665.97 1767.34 3657.02 1824.01 3623.98 1818.79"></polyline>
            <polyline id="Fill-120" fill="#C3E5EB" mask="url(#mask-5)" points="3655.54 1833.44 3646.59 1890.1 3613.54 1884.88 3622.49 1828.23 3655.54 1833.44"></polyline>
            <polyline id="Fill-121" fill="#C3E5EB" mask="url(#mask-5)" points="3613.05 1826.73 3604.1 1883.38 3571.06 1878.15 3580.01 1821.53 3613.05 1826.73"></polyline>
            <polyline id="Fill-122" fill="#FFFFFE" mask="url(#mask-5)" points="3527.88 2090.28 3622.3 2105.18 3644.67 1963.57 3550.25 1948.66 3527.88 2090.28"></polyline>
            <polyline id="Fill-123" fill="#C3E5EB" mask="url(#mask-5)" points="3549.25 2016.24 3558.2 1959.59 3591.24 1964.82 3582.29 2021.45 3549.25 2016.24"></polyline>
            <polyline id="Fill-124" fill="#C3E5EB" mask="url(#mask-5)" points="3591.75 2022.94 3600.69 1966.29 3633.72 1971.53 3624.78 2028.16 3591.75 2022.94"></polyline>
            <polyline id="Fill-125" fill="#C3E5EB" mask="url(#mask-5)" points="3623.29 2037.62 3614.35 2094.25 3581.31 2089.03 3590.25 2032.39 3623.29 2037.62"></polyline>
            <polyline id="Fill-126" fill="#C3E5EB" mask="url(#mask-5)" points="3580.8 2030.89 3571.86 2087.54 3538.82 2082.33 3547.76 2025.68 3580.8 2030.89"></polyline>
            <polyline id="Fill-127" fill="#FFFFFE" mask="url(#mask-5)" points="3696.23 1907.6 3790.63 1922.52 3813.01 1780.9 3718.58 1765.99 3696.23 1907.6"></polyline>
            <polyline id="Fill-128" fill="#C3E5EB" mask="url(#mask-5)" points="3717.59 1833.58 3726.53 1776.92 3759.6 1782.13 3750.64 1838.79 3717.59 1833.58"></polyline>
            <polyline id="Fill-129" fill="#C3E5EB" mask="url(#mask-5)" points="3760.08 1840.28 3769.02 1783.63 3802.08 1788.83 3793.13 1845.49 3760.08 1840.28"></polyline>
            <polyline id="Fill-130" fill="#C3E5EB" mask="url(#mask-5)" points="3791.65 1854.95 3782.7 1911.59 3749.64 1906.37 3758.58 1849.73 3791.65 1854.95"></polyline>
            <polyline id="Fill-131" fill="#C3E5EB" mask="url(#mask-5)" points="3749.16 1848.23 3740.21 1904.89 3707.16 1899.65 3716.1 1843.01 3749.16 1848.23"></polyline>
            <polyline id="Fill-132" fill="#FFFFFE" mask="url(#mask-5)" points="3663.97 2111.77 3758.39 2126.69 3780.75 1985.06 3686.35 1970.16 3663.97 2111.77"></polyline>
            <polyline id="Fill-133" fill="#C3E5EB" mask="url(#mask-5)" points="3685.34 2037.72 3694.29 1981.08 3727.34 1986.29 3718.41 2042.95 3685.34 2037.72"></polyline>
            <polyline id="Fill-134" fill="#C3E5EB" mask="url(#mask-5)" points="3727.83 2044.45 3736.78 1987.8 3769.83 1993.01 3760.89 2049.65 3727.83 2044.45"></polyline>
            <polyline id="Fill-135" fill="#C3E5EB" mask="url(#mask-5)" points="3759.39 2059.12 3750.45 2115.75 3717.39 2110.53 3726.34 2053.88 3759.39 2059.12"></polyline>
            <polyline id="Fill-136" fill="#C3E5EB" mask="url(#mask-5)" points="3716.9 2052.39 3707.96 2109.05 3674.9 2103.81 3683.86 2047.17 3716.9 2052.39"></polyline>
            <polyline id="Fill-137" fill="#E9853D" mask="url(#mask-5)" points="419.917 1723.42 470.01 1731.33 488.101 1616.75 438.022 1608.84 419.917 1723.42"></polyline>
            <polyline id="Fill-138" fill="#E9853D" mask="url(#mask-5)" points="499.888 1805.42 358.403 1610.86 163.867 1752.34 84.927 2252.08 420.962 2305.14 499.888 1805.42"></polyline>
            <polyline id="Fill-139" fill="#2D2E2C" mask="url(#mask-5)" points="499.888 1805.42 358.403 1610.86 163.867 1752.34 172.065 1700.4 366.606 1558.92 508.091 1753.48 499.888 1805.42"></polyline>
            <polyline id="Fill-140" fill="#FFFFFE" mask="url(#mask-5)" points="192.744 1911.8 287.158 1926.73 309.526 1785.11 215.112 1770.2 192.744 1911.8"></polyline>
            <polyline id="Fill-141" fill="#C3E5EB" mask="url(#mask-5)" points="214.102 1837.78 223.057 1781.13 256.099 1786.34 247.148 1843 214.102 1837.78"></polyline>
            <polyline id="Fill-142" fill="#C3E5EB" mask="url(#mask-5)" points="256.597 1844.51 265.547 1787.84 298.579 1793.05 289.634 1849.7 256.597 1844.51"></polyline>
            <polyline id="Fill-143" fill="#C3E5EB" mask="url(#mask-5)" points="288.14 1859.15 279.194 1915.81 246.157 1910.57 255.112 1853.92 288.14 1859.15"></polyline>
            <polyline id="Fill-144" fill="#C3E5EB" mask="url(#mask-5)" points="245.659 1852.43 236.709 1909.09 203.667 1903.86 212.612 1847.22 245.659 1852.43"></polyline>
            <polyline id="Fill-145" fill="#FFFFFE" mask="url(#mask-5)" points="160.498 2115.98 254.917 2130.88 277.28 1989.26 182.866 1974.36 160.498 2115.98"></polyline>
            <polyline id="Fill-146" fill="#C3E5EB" mask="url(#mask-5)" points="181.86 2041.93 190.811 1985.29 223.848 1990.51 214.907 2047.15 181.86 2041.93"></polyline>
            <polyline id="Fill-147" fill="#C3E5EB" mask="url(#mask-5)" points="224.355 2048.65 233.301 1991.99 266.338 1997.21 257.388 2053.87 224.355 2048.65"></polyline>
            <polyline id="Fill-148" fill="#C3E5EB" mask="url(#mask-5)" points="255.894 2063.32 246.948 2119.95 213.916 2114.74 222.866 2058.09 255.894 2063.32"></polyline>
            <polyline id="Fill-149" fill="#C3E5EB" mask="url(#mask-5)" points="213.413 2056.61 204.458 2113.25 171.421 2108.02 180.376 2051.38 213.413 2056.61"></polyline>
            <polyline id="Fill-150" fill="#FFFFFE" mask="url(#mask-5)" points="328.833 1933.31 423.257 1948.21 445.62 1806.59 351.196 1791.68 328.833 1933.31"></polyline>
            <polyline id="Fill-151" fill="#C3E5EB" mask="url(#mask-5)" points="350.2 1859.27 359.146 1802.61 392.202 1807.83 383.252 1864.5 350.2 1859.27"></polyline>
            <polyline id="Fill-152" fill="#C3E5EB" mask="url(#mask-5)" points="392.681 1865.98 401.636 1809.31 434.692 1814.55 425.742 1871.22 392.681 1865.98"></polyline>
            <polyline id="Fill-153" fill="#C3E5EB" mask="url(#mask-5)" points="424.248 1880.65 415.313 1937.28 382.241 1932.08 391.196 1875.43 424.248 1880.65"></polyline>
            <polyline id="Fill-154" fill="#C3E5EB" mask="url(#mask-5)" points="381.763 1873.95 372.817 1930.57 339.766 1925.35 348.706 1868.72 381.763 1873.95"></polyline>
            <polyline id="Fill-155" fill="#FFFFFE" mask="url(#mask-5)" points="296.587 2137.47 391.001 2152.37 413.364 2010.79 318.955 1995.85 296.587 2137.47"></polyline>
            <polyline id="Fill-156" fill="#C3E5EB" mask="url(#mask-5)" points="317.954 2063.43 326.904 2006.78 359.956 2012.01 351.011 2068.65 317.954 2063.43"></polyline>
            <polyline id="Fill-157" fill="#C3E5EB" mask="url(#mask-5)" points="360.444 2070.13 369.39 2013.48 402.446 2018.74 393.496 2075.36 360.444 2070.13"></polyline>
            <polyline id="Fill-158" fill="#C3E5EB" mask="url(#mask-5)" points="392.012 2084.81 383.062 2141.45 350.005 2136.23 358.95 2079.58 392.012 2084.81"></polyline>
            <polyline id="Fill-159" fill="#C3E5EB" mask="url(#mask-5)" points="349.517 2078.1 340.571 2134.74 307.515 2129.52 316.47 2072.88 349.517 2078.1"></polyline>
            <polyline id="Fill-160" fill="#AE243C" mask="url(#mask-5)" points="2940.24 1526.11 2885.69 1516.62 2908.27 1386.85 2962.81 1396.33 2940.24 1526.11"></polyline>
            <polyline id="Fill-161" fill="#AE243C" mask="url(#mask-5)" points="2833.53 1577.1 3030.24 1438.65 3168.65 1635.39 3051.88 2306.73 2716.76 2248.45 2833.53 1577.1"></polyline>
            <polyline id="Fill-162" fill="#2D2E2C" mask="url(#mask-5)" points="2833.53 1577.1 3030.24 1438.65 3168.65 1635.39 3177.67 1583.58 3039.25 1386.87 2842.53 1525.27 2833.53 1577.1"></polyline>
            <polyline id="Fill-163" fill="#FFFFFE" mask="url(#mask-5)" points="3089.81 1776.98 2995.67 1760.6 3020.23 1619.37 3114.38 1635.73 3089.81 1776.98"></polyline>
            <polyline id="Fill-164" fill="#C3E5EB" mask="url(#mask-5)" points="3093.51 1700.02 3103.33 1643.51 3070.38 1637.77 3060.56 1694.29 3093.51 1700.02"></polyline>
            <polyline id="Fill-165" fill="#C3E5EB" mask="url(#mask-5)" points="3051.15 1692.65 3060.97 1636.15 3028.01 1630.42 3018.18 1686.91 3051.15 1692.65"></polyline>
            <polyline id="Fill-166" fill="#C3E5EB" mask="url(#mask-5)" points="3016.54 1696.32 3006.71 1752.83 3039.68 1758.56 3049.51 1702.05 3016.54 1696.32"></polyline>
            <polyline id="Fill-167" fill="#C3E5EB" mask="url(#mask-5)" points="3058.93 1703.68 3049.09 1760.2 3082.04 1765.94 3091.87 1709.42 3058.93 1703.68"></polyline>
            <polyline id="Fill-168" fill="#FFFFFE" mask="url(#mask-5)" points="3054.39 1980.61 2960.24 1964.25 2984.81 1822.98 3078.96 1839.35 3054.39 1980.61"></polyline>
            <polyline id="Fill-169" fill="#C3E5EB" mask="url(#mask-5)" points="3058.1 1903.64 3067.92 1847.15 3034.97 1841.41 3025.14 1897.91 3058.1 1903.64"></polyline>
            <polyline id="Fill-170" fill="#C3E5EB" mask="url(#mask-5)" points="3015.73 1896.28 3025.56 1839.78 2992.59 1834.04 2982.76 1890.54 3015.73 1896.28"></polyline>
            <polyline id="Fill-171" fill="#C3E5EB" mask="url(#mask-5)" points="2981.12 1899.98 2971.3 1956.47 3004.26 1962.21 3014.09 1905.69 2981.12 1899.98"></polyline>
            <polyline id="Fill-172" fill="#C3E5EB" mask="url(#mask-5)" points="3023.5 1907.33 3013.68 1963.84 3046.62 1969.58 3056.46 1913.07 3023.5 1907.33"></polyline>
            <polyline id="Fill-173" fill="#FFFFFE" mask="url(#mask-5)" points="3018.97 2184.26 2924.82 2167.89 2949.39 2026.63 3043.54 2042.99 3018.97 2184.26"></polyline>
            <polyline id="Fill-174" fill="#C3E5EB" mask="url(#mask-5)" points="3022.68 2107.29 3032.51 2050.8 2999.55 2045.05 2989.72 2101.55 3022.68 2107.29"></polyline>
            <polyline id="Fill-175" fill="#C3E5EB" mask="url(#mask-5)" points="2980.31 2099.93 2990.15 2043.4 2957.17 2037.68 2947.33 2094.19 2980.31 2099.93"></polyline>
            <polyline id="Fill-176" fill="#C3E5EB" mask="url(#mask-5)" points="2945.7 2103.61 2935.88 2160.1 2968.85 2165.84 2978.67 2109.34 2945.7 2103.61"></polyline>
            <polyline id="Fill-177" fill="#C3E5EB" mask="url(#mask-5)" points="2988.08 2110.97 2978.25 2167.48 3011.2 2173.21 3021.04 2116.71 2988.08 2110.97"></polyline>
            <polyline id="Fill-178" fill="#FFFFFE" mask="url(#mask-5)" points="2954.07 1753.36 2859.9 1736.97 2884.46 1595.74 2978.64 1612.11 2954.07 1753.36"></polyline>
            <polyline id="Fill-179" fill="#C3E5EB" mask="url(#mask-5)" points="2957.76 1676.41 2967.59 1619.9 2934.63 1614.17 2924.79 1670.66 2957.76 1676.41"></polyline>
            <polyline id="Fill-180" fill="#C3E5EB" mask="url(#mask-5)" points="2915.38 1669.02 2925.21 1612.53 2892.24 1606.8 2882.41 1663.3 2915.38 1669.02"></polyline>
            <polyline id="Fill-181" fill="#C3E5EB" mask="url(#mask-5)" points="2880.77 1672.7 2870.95 1729.21 2903.92 1734.94 2913.74 1678.43 2880.77 1672.7"></polyline>
            <polyline id="Fill-182" fill="#C3E5EB" mask="url(#mask-5)" points="2923.16 1680.07 2913.33 1736.58 2946.3 1742.32 2956.12 1685.81 2923.16 1680.07"></polyline>
            <polyline id="Fill-183" fill="#FFFFFE" mask="url(#mask-5)" points="2918.65 1957.02 2824.47 1940.62 2849.05 1799.38 2943.23 1815.75 2918.65 1957.02"></polyline>
            <polyline id="Fill-184" fill="#C3E5EB" mask="url(#mask-5)" points="2922.35 1880.03 2932.18 1823.53 2899.21 1817.82 2889.38 1874.3 2922.35 1880.03"></polyline>
            <polyline id="Fill-185" fill="#C3E5EB" mask="url(#mask-5)" points="2879.97 1872.65 2889.79 1816.17 2856.82 1810.44 2846.99 1866.92 2879.97 1872.65"></polyline>
            <polyline id="Fill-186" fill="#C3E5EB" mask="url(#mask-5)" points="2845.36 1876.34 2835.53 1932.85 2868.5 1938.59 2878.33 1882.09 2845.36 1876.34"></polyline>
            <polyline id="Fill-187" fill="#C3E5EB" mask="url(#mask-5)" points="2887.74 1883.73 2877.91 1940.22 2910.88 1945.95 2920.71 1889.46 2887.74 1883.73"></polyline>
            <polyline id="Fill-188" fill="#FFFFFE" mask="url(#mask-5)" points="2883.23 2160.64 2789.05 2144.26 2813.62 2003.01 2907.8 2019.39 2883.23 2160.64"></polyline>
            <polyline id="Fill-189" fill="#C3E5EB" mask="url(#mask-5)" points="2886.93 2083.68 2896.75 2027.16 2863.8 2021.43 2853.96 2077.94 2886.93 2083.68"></polyline>
            <polyline id="Fill-190" fill="#C3E5EB" mask="url(#mask-5)" points="2844.54 2076.3 2854.37 2019.81 2821.4 2014.08 2811.57 2070.56 2844.54 2076.3"></polyline>
            <polyline id="Fill-191" fill="#C3E5EB" mask="url(#mask-5)" points="2809.93 2079.99 2800.11 2136.49 2833.08 2142.23 2842.9 2085.73 2809.93 2079.99"></polyline>
            <polyline id="Fill-192" fill="#C3E5EB" mask="url(#mask-5)" points="2852.32 2087.37 2842.49 2143.87 2875.46 2149.6 2885.28 2093.1 2852.32 2087.37"></polyline>
            <polyline id="Fill-193" fill="#78A695" mask="url(#mask-5)" points="2376.94 1675.15 2427.54 1671.62 2419.48 1555.91 2368.89 1559.42 2376.94 1675.15"></polyline>
            <polyline id="Fill-194" fill="#78A695" mask="url(#mask-5)" points="2473.27 1737.1 2291.75 1579.23 2133.9 1760.72 2168.73 2261.15 2508.1 2237.53 2473.27 1737.1"></polyline>
            <polyline id="Fill-195" fill="#2D2E2C" mask="url(#mask-5)" points="2473.27 1737.1 2291.75 1579.23 2133.9 1760.72 2130.24 1708.28 2288.11 1526.8 2469.6 1684.66 2473.27 1737.1"></polyline>
            <polyline id="Fill-196" fill="#FFFFFE" mask="url(#mask-5)" points="2197.79 1909.67 2293.15 1903.05 2283.19 1759.99 2187.84 1766.64 2197.79 1909.67"></polyline>
            <polyline id="Fill-197" fill="#C3E5EB" mask="url(#mask-5)" points="2202.02 1832.7 2198.04 1775.5 2231.41 1773.18 2235.4 1830.38 2202.02 1832.7"></polyline>
            <polyline id="Fill-198" fill="#C3E5EB" mask="url(#mask-5)" points="2244.93 1829.73 2240.95 1772.52 2274.32 1770.21 2278.29 1827.41 2244.93 1829.73"></polyline>
            <polyline id="Fill-199" fill="#C3E5EB" mask="url(#mask-5)" points="2278.96 1836.94 2282.94 1894.16 2249.58 1896.47 2245.6 1839.26 2278.96 1836.94"></polyline>
            <polyline id="Fill-200" fill="#C3E5EB" mask="url(#mask-5)" points="2236.04 1839.93 2240.03 1897.15 2206.67 1899.48 2202.68 1842.24 2236.04 1839.93"></polyline>
            <polyline id="Fill-201" fill="#FFFFFE" mask="url(#mask-5)" points="2212.16 2115.87 2307.51 2109.22 2297.56 1966.2 2202.2 1972.85 2212.16 2115.87"></polyline>
            <polyline id="Fill-202" fill="#C3E5EB" mask="url(#mask-5)" points="2216.38 2038.93 2212.39 1981.7 2245.76 1979.39 2249.75 2036.61 2216.38 2038.93"></polyline>
            <polyline id="Fill-203" fill="#C3E5EB" mask="url(#mask-5)" points="2259.29 2035.92 2255.3 1978.72 2288.66 1976.39 2292.65 2033.62 2259.29 2035.92"></polyline>
            <polyline id="Fill-204" fill="#C3E5EB" mask="url(#mask-5)" points="2293.31 2043.15 2297.29 2100.35 2263.94 2102.66 2259.95 2045.47 2293.31 2043.15"></polyline>
            <polyline id="Fill-205" fill="#C3E5EB" mask="url(#mask-5)" points="2250.4 2046.15 2254.38 2103.34 2221.03 2105.66 2217.04 2048.45 2250.4 2046.15"></polyline>
            <polyline id="Fill-206" fill="#FFFFFE" mask="url(#mask-5)" points="2335.24 1900.1 2430.6 1893.46 2420.64 1750.42 2325.28 1757.07 2335.24 1900.1"></polyline>
            <polyline id="Fill-207" fill="#C3E5EB" mask="url(#mask-5)" points="2339.46 1823.15 2335.49 1765.94 2368.87 1763.62 2372.84 1820.82 2339.46 1823.15"></polyline>
            <polyline id="Fill-208" fill="#C3E5EB" mask="url(#mask-5)" points="2382.37 1820.16 2378.39 1762.95 2411.79 1760.64 2415.76 1817.84 2382.37 1820.16"></polyline>
            <polyline id="Fill-209" fill="#C3E5EB" mask="url(#mask-5)" points="2416.43 1827.37 2420.41 1884.59 2387.02 1886.9 2383.04 1829.67 2416.43 1827.37"></polyline>
            <polyline id="Fill-210" fill="#C3E5EB" mask="url(#mask-5)" points="2373.51 1830.36 2377.49 1887.56 2344.11 1889.91 2340.13 1832.68 2373.51 1830.36"></polyline>
            <polyline id="Fill-211" fill="#FFFFFE" mask="url(#mask-5)" points="2349.6 2106.29 2444.95 2099.65 2435 1956.64 2339.64 1963.27 2349.6 2106.29"></polyline>
            <polyline id="Fill-212" fill="#C3E5EB" mask="url(#mask-5)" points="2353.82 2029.36 2349.83 1972.13 2383.21 1969.83 2387.2 2027.04 2353.82 2029.36"></polyline>
            <polyline id="Fill-213" fill="#C3E5EB" mask="url(#mask-5)" points="2396.73 2026.37 2392.74 1969.16 2426.14 1966.81 2430.11 2024.05 2396.73 2026.37"></polyline>
            <polyline id="Fill-214" fill="#C3E5EB" mask="url(#mask-5)" points="2430.77 2033.58 2434.76 2090.79 2401.38 2093.1 2397.39 2035.9 2430.77 2033.58"></polyline>
            <polyline id="Fill-215" fill="#C3E5EB" mask="url(#mask-5)" points="2387.86 2036.55 2391.85 2093.78 2358.47 2096.1 2354.48 2038.88 2387.86 2036.55"></polyline>
            <polyline id="Fill-216" fill="#E9853D" mask="url(#mask-5)" points="2397.79 1938.68 2866.94 1956.74 2854.95 2268.28 2385.79 2250.21 2397.79 1938.68"></polyline>
            <polyline id="Fill-217" fill="#2D2E2C" mask="url(#mask-5)" points="2901.93 1979.69 2359.9 1958.81 2413.26 1814.98 2859.79 1832.17 2901.93 1979.69"></polyline>
            <polyline id="Fill-218" fill="#E9853D" mask="url(#mask-5)" points="2481.98 1769.01 2528.99 1770.82 2525.4 1863.94 2478.41 1862.13 2481.98 1769.01"></polyline>
            <polyline id="Fill-219" fill="#FFFFFE" mask="url(#mask-5)" points="2807.24 2150.79 2711.71 2147.12 2717.24 2003.87 2812.74 2007.54 2807.24 2150.79"></polyline>
            <polyline id="Fill-220" fill="#C3E5EB" mask="url(#mask-5)" points="2800.63 2074.01 2802.83 2016.72 2769.39 2015.44 2767.2 2072.72 2800.63 2074.01"></polyline>
            <polyline id="Fill-221" fill="#C3E5EB" mask="url(#mask-5)" points="2757.64 2072.36 2759.84 2015.06 2726.43 2013.78 2724.21 2071.07 2757.64 2072.36"></polyline>
            <polyline id="Fill-222" fill="#C3E5EB" mask="url(#mask-5)" points="2723.85 2080.63 2721.64 2137.94 2755.06 2139.23 2757.28 2081.9 2723.85 2080.63"></polyline>
            <polyline id="Fill-223" fill="#C3E5EB" mask="url(#mask-5)" points="2766.82 2082.28 2764.62 2139.59 2798.06 2140.88 2800.26 2083.57 2766.82 2082.28"></polyline>
            <polyline id="Fill-224" fill="#FFFFFE" mask="url(#mask-5)" points="2669.54 2145.49 2574.01 2141.81 2579.53 1998.56 2675.05 2002.24 2669.54 2145.49"></polyline>
            <polyline id="Fill-225" fill="#C3E5EB" mask="url(#mask-5)" points="2662.92 2068.72 2665.13 2011.41 2631.7 2010.13 2629.49 2067.43 2662.92 2068.72"></polyline>
            <polyline id="Fill-226" fill="#C3E5EB" mask="url(#mask-5)" points="2619.93 2067.07 2622.14 2009.75 2588.7 2008.48 2586.5 2065.79 2619.93 2067.07"></polyline>
            <polyline id="Fill-227" fill="#C3E5EB" mask="url(#mask-5)" points="2586.13 2075.33 2583.93 2132.64 2617.36 2133.92 2619.57 2076.61 2586.13 2075.33"></polyline>
            <polyline id="Fill-228" fill="#C3E5EB" mask="url(#mask-5)" points="2629.13 2076.98 2626.92 2134.28 2660.34 2135.57 2662.56 2078.27 2629.13 2076.98"></polyline>
            <polyline id="Fill-229" fill="#FFFFFE" mask="url(#mask-5)" points="2531.83 2140.18 2436.34 2136.51 2441.86 1993.27 2537.34 1996.94 2531.83 2140.18"></polyline>
            <polyline id="Fill-230" fill="#C3E5EB" mask="url(#mask-5)" points="2525.22 2063.4 2527.44 2006.11 2494 2004.82 2491.81 2062.13 2525.22 2063.4"></polyline>
            <polyline id="Fill-231" fill="#C3E5EB" mask="url(#mask-5)" points="2482.24 2061.75 2484.44 2004.46 2451.03 2003.17 2448.82 2060.47 2482.24 2061.75"></polyline>
            <polyline id="Fill-232" fill="#C3E5EB" mask="url(#mask-5)" points="2448.46 2070.03 2446.24 2127.33 2479.67 2128.62 2481.88 2071.3 2448.46 2070.03"></polyline>
            <polyline id="Fill-233" fill="#C3E5EB" mask="url(#mask-5)" points="2491.44 2071.67 2489.23 2128.99 2522.65 2130.28 2524.85 2072.96 2491.44 2071.67"></polyline>
            <polyline id="Fill-234" fill="#78A695" mask="url(#mask-5)" points="3080.8 1958.93 3558.18 1989.91 3540.21 2267.44 3062.8 2236.49 3080.8 1958.93"></polyline>
            <polyline id="Fill-235" fill="#2D2E2C" mask="url(#mask-5)" points="3593.8 2005.42 3042.24 1969.67 3100.44 1824.6 3554.81 1854.07 3593.8 2005.42"></polyline>
            <polyline id="Fill-236" fill="#78A695" mask="url(#mask-5)" points="3171.67 1779.62 3219.5 1782.71 3213.35 1877.48 3165.53 1874.36 3171.67 1779.62"></polyline>
            <polyline id="Fill-237" fill="#FFFFFE" mask="url(#mask-5)" points="3492.75 2177.19 3395.55 2170.9 3405.01 2025.13 3502.2 2031.42 3492.75 2177.19"></polyline>
            <polyline id="Fill-238" fill="#C3E5EB" mask="url(#mask-5)" points="3488.08 2098.82 3491.86 2040.51 3457.83 2038.3 3454.04 2096.61 3488.08 2098.82"></polyline>
            <polyline id="Fill-239" fill="#C3E5EB" mask="url(#mask-5)" points="3444.33 2095.98 3448.12 2037.65 3414.1 2035.46 3410.32 2093.77 3444.33 2095.98"></polyline>
            <polyline id="Fill-240" fill="#C3E5EB" mask="url(#mask-5)" points="3409.69 2103.5 3405.91 2161.82 3439.91 2164.03 3443.7 2105.71 3409.69 2103.5"></polyline>
            <polyline id="Fill-241" fill="#C3E5EB" mask="url(#mask-5)" points="3453.42 2106.34 3449.64 2164.66 3483.66 2166.86 3487.44 2108.54 3453.42 2106.34"></polyline>
            <polyline id="Fill-242" fill="#FFFFFE" mask="url(#mask-5)" points="3352.63 2168.1 3255.43 2161.8 3264.88 2016.03 3362.09 2022.33 3352.63 2168.1"></polyline>
            <polyline id="Fill-243" fill="#C3E5EB" mask="url(#mask-5)" points="3347.95 2089.74 3351.73 2031.41 3317.71 2029.21 3313.94 2087.53 3347.95 2089.74"></polyline>
            <polyline id="Fill-244" fill="#C3E5EB" mask="url(#mask-5)" points="3304.2 2086.9 3307.99 2028.58 3273.96 2026.37 3270.19 2084.67 3304.2 2086.9"></polyline>
            <polyline id="Fill-245" fill="#C3E5EB" mask="url(#mask-5)" points="3269.55 2094.43 3265.77 2152.73 3299.79 2154.93 3303.57 2096.63 3269.55 2094.43"></polyline>
            <polyline id="Fill-246" fill="#C3E5EB" mask="url(#mask-5)" points="3313.3 2097.24 3309.52 2155.56 3343.54 2157.78 3347.31 2099.47 3313.3 2097.24"></polyline>
            <polyline id="Fill-247" fill="#FFFFFE" mask="url(#mask-5)" points="3212.49 2159.03 3115.33 2152.73 3124.79 2006.93 3221.94 2013.25 3212.49 2159.03"></polyline>
            <polyline id="Fill-248" fill="#C3E5EB" mask="url(#mask-5)" points="3207.84 2080.63 3211.61 2022.33 3177.6 2020.13 3173.82 2078.44 3207.84 2080.63"></polyline>
            <polyline id="Fill-249" fill="#C3E5EB" mask="url(#mask-5)" points="3164.09 2077.8 3167.87 2019.5 3133.87 2017.29 3130.09 2075.59 3164.09 2077.8"></polyline>
            <polyline id="Fill-250" fill="#C3E5EB" mask="url(#mask-5)" points="3129.46 2085.33 3125.67 2143.65 3159.68 2145.85 3163.46 2087.53 3129.46 2085.33"></polyline>
            <polyline id="Fill-251" fill="#C3E5EB" mask="url(#mask-5)" points="3173.18 2088.17 3169.4 2146.47 3203.42 2148.69 3207.21 2090.38 3173.18 2088.17"></polyline>
            <polyline id="Fill-252" fill="#AE243C" mask="url(#mask-5)" points="1157.15 1740.03 1207.87 1740.93 1209.93 1624.94 1159.2 1624.03 1157.15 1740.03"></polyline>
            <polyline id="Fill-253" fill="#AE243C" mask="url(#mask-5)" points="1247.69 1810.14 1080.66 1637.07 907.568 1804.09 898.75 2301.35 1238.87 2307.39 1247.69 1810.14"></polyline>
            <polyline id="Fill-254" fill="#2D2E2C" mask="url(#mask-5)" points="1247.69 1810.14 1080.66 1637.07 907.568 1804.09 908.501 1751.54 1081.59 1584.49 1248.62 1757.58 1247.69 1810.14"></polyline>
            <polyline id="Fill-255" fill="#FFFFFE" mask="url(#mask-5)" points="958.247 1958.04 1053.82 1959.74 1056.36 1816.39 960.791 1814.7 958.247 1958.04"></polyline>
            <polyline id="Fill-256" fill="#C3E5EB" mask="url(#mask-5)" points="969.18 1881.75 970.2 1824.42 1003.63 1825.03 1002.61 1882.35 969.18 1881.75"></polyline>
            <polyline id="Fill-257" fill="#C3E5EB" mask="url(#mask-5)" points="1012.17 1882.52 1013.19 1825.18 1046.65 1825.79 1045.63 1883.11 1012.17 1882.52"></polyline>
            <polyline id="Fill-258" fill="#C3E5EB" mask="url(#mask-5)" points="1045.46 1892.67 1044.45 1950.04 1010.98 1949.44 1012.01 1892.09 1045.46 1892.67"></polyline>
            <polyline id="Fill-259" fill="#C3E5EB" mask="url(#mask-5)" points="1002.45 1891.92 1001.43 1949.27 967.993 1948.68 969.009 1891.32 1002.45 1891.92"></polyline>
            <polyline id="Fill-260" fill="#FFFFFE" mask="url(#mask-5)" points="954.575 2164.73 1050.15 2166.41 1052.69 2023.06 957.114 2021.37 954.575 2164.73"></polyline>
            <polyline id="Fill-261" fill="#C3E5EB" mask="url(#mask-5)" points="965.513 2088.42 966.528 2031.1 999.966 2031.69 998.95 2089 965.513 2088.42"></polyline>
            <polyline id="Fill-262" fill="#C3E5EB" mask="url(#mask-5)" points="1008.51 2089.19 1009.53 2031.84 1042.98 2032.44 1041.98 2089.78 1008.51 2089.19"></polyline>
            <polyline id="Fill-263" fill="#C3E5EB" mask="url(#mask-5)" points="1041.8 2099.35 1040.79 2156.7 1007.32 2156.11 1008.33 2098.77 1041.8 2099.35"></polyline>
            <polyline id="Fill-264" fill="#C3E5EB" mask="url(#mask-5)" points="998.784 2098.58 997.764 2155.94 964.326 2155.36 965.347 2097.98 998.784 2098.58"></polyline>
            <polyline id="Fill-265" fill="#FFFFFE" mask="url(#mask-5)" points="1096.03 1960.48 1191.6 1962.17 1194.14 1818.84 1098.57 1817.15 1096.03 1960.48"></polyline>
            <polyline id="Fill-266" fill="#C3E5EB" mask="url(#mask-5)" points="1106.93 1884.21 1107.95 1826.86 1141.4 1827.45 1140.39 1884.79 1106.93 1884.21"></polyline>
            <polyline id="Fill-267" fill="#C3E5EB" mask="url(#mask-5)" points="1149.94 1884.97 1150.96 1827.63 1184.4 1828.23 1183.38 1885.56 1149.94 1884.97"></polyline>
            <polyline id="Fill-268" fill="#C3E5EB" mask="url(#mask-5)" points="1183.21 1895.12 1182.19 1952.49 1148.75 1951.88 1149.78 1894.54 1183.21 1895.12"></polyline>
            <polyline id="Fill-269" fill="#C3E5EB" mask="url(#mask-5)" points="1140.21 1894.36 1139.19 1951.71 1105.75 1951.14 1106.76 1893.77 1140.21 1894.36"></polyline>
            <polyline id="Fill-270" fill="#FFFFFE" mask="url(#mask-5)" points="1092.37 2167.16 1187.93 2168.87 1190.47 2025.51 1094.91 2023.81 1092.37 2167.16"></polyline>
            <polyline id="Fill-271" fill="#C3E5EB" mask="url(#mask-5)" points="1103.27 2090.87 1104.29 2033.52 1137.72 2034.12 1136.71 2091.45 1103.27 2090.87"></polyline>
            <polyline id="Fill-272" fill="#C3E5EB" mask="url(#mask-5)" points="1146.28 2091.63 1147.29 2034.28 1180.73 2034.89 1179.71 2092.23 1146.28 2091.63"></polyline>
            <polyline id="Fill-273" fill="#C3E5EB" mask="url(#mask-5)" points="1179.55 2101.78 1178.53 2159.15 1145.08 2158.54 1146.11 2101.2 1179.55 2101.78"></polyline>
            <polyline id="Fill-274" fill="#C3E5EB" mask="url(#mask-5)" points="1136.55 2101.02 1135.53 2158.38 1102.08 2157.79 1103.1 2100.44 1136.55 2101.02"></polyline>
            <polyline id="Fill-275" fill="#78A695" mask="url(#mask-5)" points="418.623 2014.35 902.31 1981.55 921.377 2262.74 437.686 2295.53 418.623 2014.35"></polyline>
            <polyline id="Fill-276" fill="#2D2E2C" mask="url(#mask-5)" points="940.151 1992.37 381.323 2030.26 420.366 1876.76 880.732 1845.55 940.151 1992.37"></polyline>
            <polyline id="Fill-277" fill="#78A695" mask="url(#mask-5)" points="485.903 1822.05 534.365 1818.77 540.869 1914.77 492.412 1918.03 485.903 1822.05"></polyline>
            <polyline id="Fill-278" fill="#FFFFFE" mask="url(#mask-5)" points="861.636 2178.44 763.159 2185.13 753.149 2037.41 851.621 2030.75 861.636 2178.44"></polyline>
            <polyline id="Fill-279" fill="#C3E5EB" mask="url(#mask-5)" points="846.46 2100.33 842.441 2041.26 807.974 2043.6 811.978 2102.67 846.46 2100.33"></polyline>
            <polyline id="Fill-280" fill="#C3E5EB" mask="url(#mask-5)" points="802.134 2103.35 798.13 2044.26 763.667 2046.61 767.676 2105.66 802.134 2103.35"></polyline>
            <polyline id="Fill-281" fill="#C3E5EB" mask="url(#mask-5)" points="768.34 2115.53 772.349 2174.6 806.812 2172.27 802.798 2113.21 768.34 2115.53"></polyline>
            <polyline id="Fill-282" fill="#C3E5EB" mask="url(#mask-5)" points="812.642 2112.54 816.646 2171.62 851.128 2169.27 847.124 2110.2 812.642 2112.54"></polyline>
            <polyline id="Fill-283" fill="#FFFFFE" mask="url(#mask-5)" points="719.673 2188.07 621.191 2194.75 611.172 2047.04 709.658 2040.37 719.673 2188.07"></polyline>
            <polyline id="Fill-284" fill="#C3E5EB" mask="url(#mask-5)" points="704.478 2109.96 700.474 2050.88 666.006 2053.21 670.01 2112.29 704.478 2109.96"></polyline>
            <polyline id="Fill-285" fill="#C3E5EB" mask="url(#mask-5)" points="660.161 2112.96 656.152 2053.89 621.68 2056.22 625.688 2115.3 660.161 2112.96"></polyline>
            <polyline id="Fill-286" fill="#C3E5EB" mask="url(#mask-5)" points="626.357 2125.16 630.366 2184.24 664.839 2181.9 660.825 2122.82 626.357 2125.16"></polyline>
            <polyline id="Fill-287" fill="#C3E5EB" mask="url(#mask-5)" points="670.674 2122.16 674.688 2181.24 709.155 2178.89 705.142 2119.82 670.674 2122.16"></polyline>
            <polyline id="Fill-288" fill="#FFFFFE" mask="url(#mask-5)" points="577.69 2197.7 479.253 2204.35 469.233 2056.67 567.681 2049.99 577.69 2197.7"></polyline>
            <polyline id="Fill-289" fill="#C3E5EB" mask="url(#mask-5)" points="562.524 2119.59 558.516 2060.51 524.048 2062.83 528.062 2121.91 562.524 2119.59"></polyline>
            <polyline id="Fill-290" fill="#C3E5EB" mask="url(#mask-5)" points="518.198 2122.59 514.194 2063.51 479.731 2065.83 483.735 2124.93 518.198 2122.59"></polyline>
            <polyline id="Fill-291" fill="#C3E5EB" mask="url(#mask-5)" points="484.409 2134.79 488.413 2193.87 522.876 2191.53 518.872 2132.44 484.409 2134.79"></polyline>
            <polyline id="Fill-292" fill="#C3E5EB" mask="url(#mask-5)" points="528.716 2131.78 532.729 2190.86 567.192 2188.53 563.188 2129.44 528.716 2131.78"></polyline>
            <polyline id="Fill-293" fill="#AE243C" mask="url(#mask-5)" points="1465.32 1948.21 1934.64 1961.04 1926.48 2259.76 1457.15 2246.93 1465.32 1948.21"></polyline>
            <polyline id="Fill-294" fill="#2D2E2C" mask="url(#mask-5)" points="1970 1979.28 1427.77 1964.46 1479.53 1820.05 1926.21 1832.26 1970 1979.28"></polyline>
            <polyline id="Fill-295" fill="#AE243C" mask="url(#mask-5)" points="1547.74 1773.31 1594.77 1774.59 1592.22 1867.76 1545.2 1866.48 1547.74 1773.31"></polyline>
            <polyline id="Fill-296" fill="#FFFFFE" mask="url(#mask-5)" points="1877.21 2151.44 1781.67 2148.83 1785.6 2005.51 1881.14 2008.11 1877.21 2151.44"></polyline>
            <polyline id="Fill-297" fill="#C3E5EB" mask="url(#mask-5)" points="1869.75 2074.75 1871.31 2017.43 1837.89 2016.5 1836.31 2073.83 1869.75 2074.75"></polyline>
            <polyline id="Fill-298" fill="#C3E5EB" mask="url(#mask-5)" points="1826.77 2073.56 1828.33 2016.24 1794.88 2015.33 1793.32 2072.64 1826.77 2073.56"></polyline>
            <polyline id="Fill-299" fill="#C3E5EB" mask="url(#mask-5)" points="1793.05 2082.21 1791.48 2139.55 1824.94 2140.46 1826.51 2083.11 1793.05 2082.21"></polyline>
            <polyline id="Fill-300" fill="#C3E5EB" mask="url(#mask-5)" points="1836.05 2083.38 1834.48 2140.72 1867.92 2141.65 1869.49 2084.28 1836.05 2083.38"></polyline>
            <polyline id="Fill-301" fill="#FFFFFE" mask="url(#mask-5)" points="1739.47 2147.67 1643.93 2145.06 1647.85 2001.73 1743.39 2004.36 1739.47 2147.67"></polyline>
            <polyline id="Fill-302" fill="#C3E5EB" mask="url(#mask-5)" points="1732.01 2070.98 1733.57 2013.65 1700.13 2012.73 1698.56 2070.04 1732.01 2070.98"></polyline>
            <polyline id="Fill-303" fill="#C3E5EB" mask="url(#mask-5)" points="1689.01 2069.81 1690.58 2012.48 1657.13 2011.58 1655.57 2068.88 1689.01 2069.81"></polyline>
            <polyline id="Fill-304" fill="#C3E5EB" mask="url(#mask-5)" points="1655.31 2078.44 1653.74 2135.78 1687.18 2136.68 1688.75 2079.35 1655.31 2078.44"></polyline>
            <polyline id="Fill-305" fill="#C3E5EB" mask="url(#mask-5)" points="1698.3 2079.62 1696.73 2136.94 1730.18 2137.88 1731.74 2080.53 1698.3 2079.62"></polyline>
            <polyline id="Fill-306" fill="#FFFFFE" mask="url(#mask-5)" points="1601.73 2143.91 1506.17 2141.29 1510.09 1997.97 1605.65 2000.58 1601.73 2143.91"></polyline>
            <polyline id="Fill-307" fill="#C3E5EB" mask="url(#mask-5)" points="1594.27 2067.2 1595.83 2009.9 1562.38 2008.97 1560.82 2066.29 1594.27 2067.2"></polyline>
            <polyline id="Fill-308" fill="#C3E5EB" mask="url(#mask-5)" points="1551.28 2066.03 1552.85 2008.7 1519.39 2007.8 1517.82 2065.1 1551.28 2066.03"></polyline>
            <polyline id="Fill-309" fill="#C3E5EB" mask="url(#mask-5)" points="1517.55 2074.67 1515.98 2132.01 1549.45 2132.92 1551.02 2075.58 1517.55 2074.67"></polyline>
            <polyline id="Fill-310" fill="#C3E5EB" mask="url(#mask-5)" points="1560.56 2075.85 1558.99 2133.19 1592.45 2134.11 1594.01 2076.76 1560.56 2075.85"></polyline>
            <path d="M2285.75,1863.27 C2296.32,1789.14 2365,1737.63 2439.13,1748.17 C2513.26,1758.75 2564.79,1827.43 2554.21,1901.57 C2543.64,1975.69 2474.98,2027.21 2400.84,2016.66 C2326.71,2006.06 2275.17,1937.39 2285.75,1863.27" id="Fill-311" fill="#BEC935" mask="url(#mask-5)"></path>
            <polyline id="Fill-312" fill="#664628" mask="url(#mask-5)" points="2519.5 1916.78 2412.53 1977.29 2432.45 1798.75 2411.58 1917.22 2353.27 1832.04 2409.46 1929.22 2355.99 2232.58 2383.96 2233.21 2411.06 1990.39 2519.5 1916.78"></polyline>
            <path d="M1311.8,1919.26 C1302.4,1844.98 1355.02,1777.14 1429.32,1767.73 C1503.6,1758.34 1571.44,1810.94 1580.83,1885.24 C1590.23,1959.54 1537.62,2027.37 1463.33,2036.75 C1389.04,2046.16 1321.18,1993.53 1311.8,1919.26" id="Fill-313" fill="#BEC935" mask="url(#mask-5)"></path>
            <polyline id="Fill-314" fill="#664628" mask="url(#mask-5)" points="1551.38 1909.1 1464.2 1995.71 1436.24 1818.26 1447.41 1938.04 1368.66 1871.29 1448.53 1950.18 1477.14 2256.88 1504.29 2250.1 1466.25 2008.73 1551.38 1909.1"></polyline>
            <path d="M79.224,1969.6 C69.829,1895.3 122.456,1827.47 196.743,1818.07 C271.025,1808.66 338.877,1861.28 348.267,1935.58 C357.661,2009.86 305.054,2077.7 230.762,2087.1 C156.475,2096.5 88.604,2043.88 79.224,1969.6" id="Fill-315" fill="#BEC935" mask="url(#mask-5)"></path>
            <polyline id="Fill-316" fill="#664628" mask="url(#mask-5)" points="318.813 1959.43 231.626 2046.06 203.667 1868.6 214.844 1988.38 136.089 1921.63 215.967 2000.52 244.575 2307.22 271.719 2300.44 233.672 2059.07 318.813 1959.43"></polyline>
            <polygon id="Fill-317" fill="#FFFFFE" mask="url(#mask-5)" points="0.06 3799 4000 3799 4000 2199 0.06 2199"></polygon>
            <polyline id="Fill-318" fill="#F4F4F1" mask="url(#mask-5)" points="1594.72 2199 1575.36 2199 0 3774.35 0 3793.72 1594.72 2199"></polyline>
            <polyline id="Fill-319" fill="#F4F4F1" mask="url(#mask-5)" points="1459.16 2199 1439.8 2199 0 3638.79 0 3658.15 1459.16 2199"></polyline>
            <polyline id="Fill-320" fill="#F4F4F1" mask="url(#mask-5)" points="1865.79 2199 1846.45 2199 246.445 3799 265.786 3799 1865.79 2199"></polyline>
            <polyline id="Fill-321" fill="#F4F4F1" mask="url(#mask-5)" points="1730.25 2199 1710.89 2199 110.894 3799 130.249 3799 1730.25 2199"></polyline>
            <polyline id="Fill-322" fill="#F4F4F1" mask="url(#mask-5)" points="2001.34 2199 1981.96 2199 381.968 3799 401.338 3799 2001.34 2199"></polyline>
            <polyline id="Fill-323" fill="#F4F4F1" mask="url(#mask-5)" points="2543.53 2199 2524.15 2199 924.146 3799 943.521 3799 2543.53 2199"></polyline>
            <polyline id="Fill-324" fill="#F4F4F1" mask="url(#mask-5)" points="2679.05 2199 2659.7 2199 1059.69 3799 1079.05 3799 2679.05 2199"></polyline>
            <polyline id="Fill-325" fill="#F4F4F1" mask="url(#mask-5)" points="2272.45 2199 2253.08 2199 653.081 3799 672.446 3799 2272.45 2199"></polyline>
            <polyline id="Fill-326" fill="#F4F4F1" mask="url(#mask-5)" points="2814.6 2199 2795.24 2199 1195.25 3799 1214.6 3799 2814.6 2199"></polyline>
            <polyline id="Fill-327" fill="#F4F4F1" mask="url(#mask-5)" points="2136.88 2199 2117.51 2199 517.51 3799 536.88 3799 2136.88 2199"></polyline>
            <polyline id="Fill-328" fill="#F4F4F1" mask="url(#mask-5)" points="374.805 2199 355.454 2199 0 2554.46 0 2573.8 374.805 2199"></polyline>
            <polyline id="Fill-329" fill="#F4F4F1" mask="url(#mask-5)" points="510.366 2199 490.996 2199 0 2690 0 2709.36 510.366 2199"></polyline>
            <polyline id="Fill-330" fill="#F4F4F1" mask="url(#mask-5)" points="239.282 2199 219.912 2199 0 2418.91 0 2438.29 239.282 2199"></polyline>
            <polyline id="Fill-331" fill="#F4F4F1" mask="url(#mask-5)" points="645.898 2199 626.538 2199 0 2825.53 0 2844.9 645.898 2199"></polyline>
            <polyline id="Fill-332" fill="#F4F4F1" mask="url(#mask-5)" points="103.745 2199 84.37 2199 0 2283.38 0 2302.74 103.745 2199"></polyline>
            <polyline id="Fill-333" fill="#F4F4F1" mask="url(#mask-5)" points="916.982 2199 897.622 2199 0 3096.63 0 3115.98 916.982 2199"></polyline>
            <polyline id="Fill-334" fill="#F4F4F1" mask="url(#mask-5)" points="1188.07 2199 1168.71 2199 0 3367.71 0 3387.08 1188.07 2199"></polyline>
            <polyline id="Fill-335" fill="#F4F4F1" mask="url(#mask-5)" points="1052.53 2199 1033.18 2199 0 3232.17 0 3251.54 1052.53 2199"></polyline>
            <polyline id="Fill-336" fill="#F4F4F1" mask="url(#mask-5)" points="1323.63 2199 1304.26 2199 0 3503.27 0 3522.63 1323.63 2199"></polyline>
            <polyline id="Fill-337" fill="#F4F4F1" mask="url(#mask-5)" points="781.465 2199 762.095 2199 0 2961.1 0 2980.46 781.465 2199"></polyline>
            <polyline id="Fill-338" fill="#F4F4F1" mask="url(#mask-5)" points="2407.96 2199 2388.6 2199 788.604 3799 807.969 3799 2407.96 2199"></polyline>
            <polyline id="Fill-339" fill="#F4F4F1" mask="url(#mask-5)" points="4000 2911.23 4000 2891.84 3092.84 3799 3112.22 3799 4000 2911.23"></polyline>
            <polyline id="Fill-340" fill="#F4F4F1" mask="url(#mask-5)" points="4000 3182.29 4000 3162.92 3363.93 3799 3383.29 3799 4000 3182.29"></polyline>
            <polyline id="Fill-341" fill="#F4F4F1" mask="url(#mask-5)" points="4000 2504.58 4000 2485.24 2686.23 3799 2705.58 3799 4000 2504.58"></polyline>
            <polyline id="Fill-342" fill="#F4F4F1" mask="url(#mask-5)" points="4000 2775.68 4000 2756.29 2957.3 3799 2976.68 3799 4000 2775.68"></polyline>
            <polyline id="Fill-343" fill="#F4F4F1" mask="url(#mask-5)" points="4000 2640.11 4000 2620.76 2821.75 3799 2841.11 3799 4000 2640.11"></polyline>
            <polyline id="Fill-344" fill="#F4F4F1" mask="url(#mask-5)" points="4000 3046.76 4000 3027.4 3228.41 3799 3247.76 3799 4000 3046.76"></polyline>
            <polyline id="Fill-345" fill="#F4F4F1" mask="url(#mask-5)" points="4000 3588.91 4000 3569.56 3770.56 3799 3789.91 3799 4000 3588.91"></polyline>
            <polyline id="Fill-346" fill="#F4F4F1" mask="url(#mask-5)" points="4000 3724.48 4000 3705.12 3906.11 3799 3925.48 3799 4000 3724.48"></polyline>
            <polyline id="Fill-347" fill="#F4F4F1" mask="url(#mask-5)" points="4000 3317.84 4000 3298.48 3499.48 3799 3518.84 3799 4000 3317.84"></polyline>
            <polyline id="Fill-348" fill="#F4F4F1" mask="url(#mask-5)" points="2950.14 2199 2930.77 2199 1330.77 3799 1350.14 3799 2950.14 2199"></polyline>
            <polyline id="Fill-349" fill="#F4F4F1" mask="url(#mask-5)" points="4000 3453.4 4000 3434.03 3635.03 3799 3654.39 3799 4000 3453.4"></polyline>
            <polyline id="Fill-350" fill="#F4F4F1" mask="url(#mask-5)" points="3492.32 2199 3472.95 2199 1872.95 3799 1892.32 3799 3492.32 2199"></polyline>
            <polyline id="Fill-351" fill="#F4F4F1" mask="url(#mask-5)" points="4000 2369.03 4000 2349.66 2550.66 3799 2570.03 3799 4000 2369.03"></polyline>
            <polyline id="Fill-352" fill="#F4F4F1" mask="url(#mask-5)" points="3221.24 2199 3201.86 2199 1601.86 3799 1621.24 3799 3221.24 2199"></polyline>
            <polyline id="Fill-353" fill="#F4F4F1" mask="url(#mask-5)" points="3085.69 2199 3066.34 2199 1466.33 3799 1485.7 3799 3085.69 2199"></polyline>
            <polyline id="Fill-354" fill="#F4F4F1" mask="url(#mask-5)" points="3356.79 2199 3337.43 2199 1737.42 3799 1756.79 3799 3356.79 2199"></polyline>
            <polyline id="Fill-355" fill="#F4F4F1" mask="url(#mask-5)" points="3898.95 2199 3879.58 2199 2279.58 3799 2298.95 3799 3898.95 2199"></polyline>
            <polyline id="Fill-356" fill="#F4F4F1" mask="url(#mask-5)" points="4000 2233.5 4000 2214.13 2415.13 3799 2434.5 3799 4000 2233.5"></polyline>
            <polyline id="Fill-357" fill="#F4F4F1" mask="url(#mask-5)" points="3763.42 2199 3744.07 2199 2144.06 3799 2163.42 3799 3763.42 2199"></polyline>
            <polyline id="Fill-358" fill="#F4F4F1" mask="url(#mask-5)" points="3627.86 2199 3608.51 2199 2008.51 3799 2027.86 3799 3627.86 2199"></polyline>
            <path d="M98.379,2278.28 L45.044,2278.28 C39.521,2278.28 35.044,2273.79 35.044,2268.28 C35.044,2262.76 39.521,2258.28 45.044,2258.28 L98.379,2258.28 C103.901,2258.28 108.379,2262.76 108.379,2268.28 C108.379,2273.79 103.901,2278.28 98.379,2278.28 Z M231.714,2278.28 L178.379,2278.28 C172.856,2278.28 168.379,2273.79 168.379,2268.28 C168.379,2262.76 172.856,2258.28 178.379,2258.28 L231.714,2258.28 C237.236,2258.28 241.714,2262.76 241.714,2268.28 C241.714,2273.79 237.236,2278.28 231.714,2278.28 Z M365.044,2278.28 L311.714,2278.28 C306.187,2278.28 301.714,2273.79 301.714,2268.28 C301.714,2262.76 306.187,2258.28 311.714,2258.28 L365.044,2258.28 C370.571,2258.28 375.044,2262.76 375.044,2268.28 C375.044,2273.79 370.571,2278.28 365.044,2278.28 Z M498.379,2278.28 L445.044,2278.28 C439.521,2278.28 435.044,2273.79 435.044,2268.28 C435.044,2262.76 439.521,2258.28 445.044,2258.28 L498.379,2258.28 C503.901,2258.28 508.379,2262.76 508.379,2268.28 C508.379,2273.79 503.901,2278.28 498.379,2278.28 Z M631.714,2278.28 L578.379,2278.28 C572.856,2278.28 568.379,2273.79 568.379,2268.28 C568.379,2262.76 572.856,2258.28 578.379,2258.28 L631.714,2258.28 C637.236,2258.28 641.714,2262.76 641.714,2268.28 C641.714,2273.79 637.236,2278.28 631.714,2278.28 Z M765.044,2278.28 L711.714,2278.28 C706.187,2278.28 701.714,2273.79 701.714,2268.28 C701.714,2262.76 706.187,2258.28 711.714,2258.28 L765.044,2258.28 C770.571,2258.28 775.044,2262.76 775.044,2268.28 C775.044,2273.79 770.571,2278.28 765.044,2278.28 Z M898.379,2278.28 L845.044,2278.28 C839.521,2278.28 835.044,2273.79 835.044,2268.28 C835.044,2262.76 839.521,2258.28 845.044,2258.28 L898.379,2258.28 C903.901,2258.28 908.379,2262.76 908.379,2268.28 C908.379,2273.79 903.901,2278.28 898.379,2278.28 Z M1031.71,2278.28 L978.379,2278.28 C972.856,2278.28 968.379,2273.79 968.379,2268.28 C968.379,2262.76 972.856,2258.28 978.379,2258.28 L1031.71,2258.28 C1037.24,2258.28 1041.71,2262.76 1041.71,2268.28 C1041.71,2273.79 1037.24,2278.28 1031.71,2278.28 Z M1165.04,2278.28 L1111.71,2278.28 C1106.19,2278.28 1101.71,2273.79 1101.71,2268.28 C1101.71,2262.76 1106.19,2258.28 1111.71,2258.28 L1165.04,2258.28 C1170.57,2258.28 1175.04,2262.76 1175.04,2268.28 C1175.04,2273.79 1170.57,2278.28 1165.04,2278.28 Z M1298.38,2278.28 L1245.04,2278.28 C1239.52,2278.28 1235.04,2273.79 1235.04,2268.28 C1235.04,2262.76 1239.52,2258.28 1245.04,2258.28 L1298.38,2258.28 C1303.9,2258.28 1308.38,2262.76 1308.38,2268.28 C1308.38,2273.79 1303.9,2278.28 1298.38,2278.28 Z M1431.71,2278.28 L1378.38,2278.28 C1372.86,2278.28 1368.38,2273.79 1368.38,2268.28 C1368.38,2262.76 1372.86,2258.28 1378.38,2258.28 L1431.71,2258.28 C1437.24,2258.28 1441.71,2262.76 1441.71,2268.28 C1441.71,2273.79 1437.24,2278.28 1431.71,2278.28 Z M1565.04,2278.28 L1511.71,2278.28 C1506.19,2278.28 1501.71,2273.79 1501.71,2268.28 C1501.71,2262.76 1506.19,2258.28 1511.71,2258.28 L1565.04,2258.28 C1570.57,2258.28 1575.04,2262.76 1575.04,2268.28 C1575.04,2273.79 1570.57,2278.28 1565.04,2278.28 Z M1698.38,2278.28 L1645.04,2278.28 C1639.52,2278.28 1635.04,2273.79 1635.04,2268.28 C1635.04,2262.76 1639.52,2258.28 1645.04,2258.28 L1698.38,2258.28 C1703.9,2258.28 1708.38,2262.76 1708.38,2268.28 C1708.38,2273.79 1703.9,2278.28 1698.38,2278.28 Z M1831.71,2278.28 L1778.38,2278.28 C1772.86,2278.28 1768.38,2273.79 1768.38,2268.28 C1768.38,2262.76 1772.86,2258.28 1778.38,2258.28 L1831.71,2258.28 C1837.24,2258.28 1841.71,2262.76 1841.71,2268.28 C1841.71,2273.79 1837.24,2278.28 1831.71,2278.28 Z M1965.04,2278.28 L1911.71,2278.28 C1906.19,2278.28 1901.71,2273.79 1901.71,2268.28 C1901.71,2262.76 1906.19,2258.28 1911.71,2258.28 L1965.04,2258.28 C1970.57,2258.28 1975.04,2262.76 1975.04,2268.28 C1975.04,2273.79 1970.57,2278.28 1965.04,2278.28 Z M2098.38,2278.28 L2045.05,2278.28 C2039.52,2278.28 2035.05,2273.79 2035.05,2268.28 C2035.05,2262.76 2039.52,2258.28 2045.05,2258.28 L2098.38,2258.28 C2103.9,2258.28 2108.38,2262.76 2108.38,2268.28 C2108.38,2273.79 2103.9,2278.28 2098.38,2278.28 Z M2231.71,2278.28 L2178.38,2278.28 C2172.86,2278.28 2168.38,2273.79 2168.38,2268.28 C2168.38,2262.76 2172.86,2258.28 2178.38,2258.28 L2231.71,2258.28 C2237.24,2258.28 2241.71,2262.76 2241.71,2268.28 C2241.71,2273.79 2237.24,2278.28 2231.71,2278.28 Z M2365.05,2278.28 L2311.71,2278.28 C2306.19,2278.28 2301.71,2273.79 2301.71,2268.28 C2301.71,2262.76 2306.19,2258.28 2311.71,2258.28 L2365.05,2258.28 C2370.57,2258.28 2375.05,2262.76 2375.05,2268.28 C2375.05,2273.79 2370.57,2278.28 2365.05,2278.28 Z M2498.38,2278.28 L2445.05,2278.28 C2439.52,2278.28 2435.05,2273.79 2435.05,2268.28 C2435.05,2262.76 2439.52,2258.28 2445.05,2258.28 L2498.38,2258.28 C2503.9,2258.28 2508.38,2262.76 2508.38,2268.28 C2508.38,2273.79 2503.9,2278.28 2498.38,2278.28 Z M2631.71,2278.28 L2578.38,2278.28 C2572.86,2278.28 2568.38,2273.79 2568.38,2268.28 C2568.38,2262.76 2572.86,2258.28 2578.38,2258.28 L2631.71,2258.28 C2637.24,2258.28 2641.71,2262.76 2641.71,2268.28 C2641.71,2273.79 2637.24,2278.28 2631.71,2278.28 Z M2765.05,2278.28 L2711.71,2278.28 C2706.19,2278.28 2701.71,2273.79 2701.71,2268.28 C2701.71,2262.76 2706.19,2258.28 2711.71,2258.28 L2765.05,2258.28 C2770.57,2258.28 2775.05,2262.76 2775.05,2268.28 C2775.05,2273.79 2770.57,2278.28 2765.05,2278.28 Z M2898.38,2278.28 L2845.05,2278.28 C2839.52,2278.28 2835.05,2273.79 2835.05,2268.28 C2835.05,2262.76 2839.52,2258.28 2845.05,2258.28 L2898.38,2258.28 C2903.9,2258.28 2908.38,2262.76 2908.38,2268.28 C2908.38,2273.79 2903.9,2278.28 2898.38,2278.28 Z M3031.71,2278.28 L2978.38,2278.28 C2972.86,2278.28 2968.38,2273.79 2968.38,2268.28 C2968.38,2262.76 2972.86,2258.28 2978.38,2258.28 L3031.71,2258.28 C3037.24,2258.28 3041.71,2262.76 3041.71,2268.28 C3041.71,2273.79 3037.24,2278.28 3031.71,2278.28 Z M3165.05,2278.28 L3111.71,2278.28 C3106.19,2278.28 3101.71,2273.79 3101.71,2268.28 C3101.71,2262.76 3106.19,2258.28 3111.71,2258.28 L3165.05,2258.28 C3170.57,2258.28 3175.05,2262.76 3175.05,2268.28 C3175.05,2273.79 3170.57,2278.28 3165.05,2278.28 Z M3298.38,2278.28 L3245.05,2278.28 C3239.52,2278.28 3235.05,2273.79 3235.05,2268.28 C3235.05,2262.76 3239.52,2258.28 3245.05,2258.28 L3298.38,2258.28 C3303.9,2258.28 3308.38,2262.76 3308.38,2268.28 C3308.38,2273.79 3303.9,2278.28 3298.38,2278.28 Z M3431.71,2278.28 L3378.38,2278.28 C3372.86,2278.28 3368.38,2273.79 3368.38,2268.28 C3368.38,2262.76 3372.86,2258.28 3378.38,2258.28 L3431.71,2258.28 C3437.24,2258.28 3441.71,2262.76 3441.71,2268.28 C3441.71,2273.79 3437.24,2278.28 3431.71,2278.28 Z M3565.05,2278.28 L3511.71,2278.28 C3506.19,2278.28 3501.71,2273.79 3501.71,2268.28 C3501.71,2262.76 3506.19,2258.28 3511.71,2258.28 L3565.05,2258.28 C3570.57,2258.28 3575.05,2262.76 3575.05,2268.28 C3575.05,2273.79 3570.57,2278.28 3565.05,2278.28 Z M3698.38,2278.28 L3645.05,2278.28 C3639.52,2278.28 3635.05,2273.79 3635.05,2268.28 C3635.05,2262.76 3639.52,2258.28 3645.05,2258.28 L3698.38,2258.28 C3703.9,2258.28 3708.38,2262.76 3708.38,2268.28 C3708.38,2273.79 3703.9,2278.28 3698.38,2278.28 Z M3831.71,2278.28 L3778.38,2278.28 C3772.86,2278.28 3768.38,2273.79 3768.38,2268.28 C3768.38,2262.76 3772.86,2258.28 3778.38,2258.28 L3831.71,2258.28 C3837.24,2258.28 3841.71,2262.76 3841.71,2268.28 C3841.71,2273.79 3837.24,2278.28 3831.71,2278.28 Z M3965.05,2278.28 L3911.71,2278.28 C3906.19,2278.28 3901.71,2273.79 3901.71,2268.28 C3901.71,2262.76 3906.19,2258.28 3911.71,2258.28 L3965.05,2258.28 C3970.57,2258.28 3975.05,2262.76 3975.05,2268.28 C3975.05,2273.79 3970.57,2278.28 3965.05,2278.28 L3965.05,2278.28 Z" id="Fill-359" fill="#91928E" mask="url(#mask-5)"></path>
        </g>
    </g>
</svg>