<?xml version="1.0" encoding="UTF-8"?>
<svg width="512px" height="512px" viewBox="0 0 512 512" version="1.1" xmlns="http://www.w3.org/2000/svg" xmlns:xlink="http://www.w3.org/1999/xlink">
    <!-- Generator: Sketch 60.1 (88133) - https://sketch.com -->
    <title>Icon</title>
    <desc>Created with Sketch.</desc>
    <g id="Icon" stroke="none" stroke-width="1" fill="none" fill-rule="evenodd">
        <rect id="whitey" fill-opacity="0.01" fill="#FFFFFF" x="0" y="0" width="512" height="512"></rect>
        <g id="Black_Icon" transform="translate(78.000000, 110.000000)" fill="#000000" fill-rule="nonzero">
            <path d="M339.25,132.447 L265.5,132.3 C257.3875,132.3 250.75,138.915 250.75,147 L250.75,279.3 C250.75,287.385 257.3875,294 265.5,294 L339.25,294 C347.3625,294 354,287.385 354,279.3 L354,147 C354,138.915 347.3625,132.447 339.25,132.447 Z M339.25,264.6 L265.5,264.6 L265.5,161.7 L339.25,161.7 L339.25,264.6 Z M295,0 L29.5,0 C13.1275,0 0,13.083 0,29.4 L0,205.8 C0,221.97 13.1275,235.2 29.5,235.2 L132.75,235.2 L132.75,264.6 L103.25,264.6 L103.25,294 L221.25,294 L221.25,264.6 L191.75,264.6 L191.75,235.2 L221.25,235.2 L221.25,205.8 L29.5,205.8 L29.5,29.4 L295,29.4 L295,102.9 L324.5,102.9 L324.5,29.4 C324.5,13.083 311.225,0 295,0 Z M176.5575,102.9 L162.25,58.8 L147.9425,102.9 L103.25,102.9 L139.6825,128.772 L125.8175,171.549 L162.25,145.089 L198.6825,171.549 L184.8175,128.772 L221.25,102.9 L176.5575,102.9 Z" id="Shape"></path>
        </g>
    </g>
</svg>